<svg xmlns="http://www.w3.org/2000/svg" xmlns:xlink="http://www.w3.org/1999/xlink" xmlns:s="https://github.com/nturley/netlistsvg" width="490" height="1131.5">
  <style>svg {
    stroke:#000;
    fill:none;
  }
  text {
    fill:#000;
    stroke:none;
    font-size:10px;
    font-weight: bold;
    font-family: "Courier New", monospace;
  }
  .nodelabel {
    text-anchor: middle;
  }
  .inputPortLabel {
    text-anchor: end;
  }
  .splitjoinBody {
    fill:#000;
  }</style>
  <g s:type="eq" transform="translate(77,519.5)" s:width="25" s:height="25" id="cell_$procmux$10_CMP0">
    <s:alias val="$eq"/>
    <circle r="12.5" cx="12.5" cy="12.5" class="cell_$procmux$10_CMP0"/>
    <line x1="7.5" x2="17.5" y1="10" y2="10" class="cell_$procmux$10_CMP0"/>
    <line x1="7.5" x2="17.5" y1="15" y2="15" class="cell_$procmux$10_CMP0"/>
    <g s:x="3" s:y="5" s:pid="A"/>
    <g s:x="3" s:y="20" s:pid="B"/>
    <g s:x="25" s:y="12.5" s:pid="Y"/>
  </g>
  <g s:type="eq" transform="translate(77,634.5)" s:width="25" s:height="25" id="cell_$procmux$11_CMP0">
    <s:alias val="$eq"/>
    <circle r="12.5" cx="12.5" cy="12.5" class="cell_$procmux$11_CMP0"/>
    <line x1="7.5" x2="17.5" y1="10" y2="10" class="cell_$procmux$11_CMP0"/>
    <line x1="7.5" x2="17.5" y1="15" y2="15" class="cell_$procmux$11_CMP0"/>
    <g s:x="3" s:y="5" s:pid="A"/>
    <g s:x="3" s:y="20" s:pid="B"/>
    <g s:x="25" s:y="12.5" s:pid="Y"/>
  </g>
  <g s:type="eq" transform="translate(77,699.5)" s:width="25" s:height="25" id="cell_$procmux$12_CMP0">
    <s:alias val="$eq"/>
    <circle r="12.5" cx="12.5" cy="12.5" class="cell_$procmux$12_CMP0"/>
    <line x1="7.5" x2="17.5" y1="10" y2="10" class="cell_$procmux$12_CMP0"/>
    <line x1="7.5" x2="17.5" y1="15" y2="15" class="cell_$procmux$12_CMP0"/>
    <g s:x="3" s:y="5" s:pid="A"/>
    <g s:x="3" s:y="20" s:pid="B"/>
    <g s:x="25" s:y="12.5" s:pid="Y"/>
  </g>
  <g s:type="eq" transform="translate(77,764.5)" s:width="25" s:height="25" id="cell_$procmux$13_CMP0">
    <s:alias val="$eq"/>
    <circle r="12.5" cx="12.5" cy="12.5" class="cell_$procmux$13_CMP0"/>
    <line x1="7.5" x2="17.5" y1="10" y2="10" class="cell_$procmux$13_CMP0"/>
    <line x1="7.5" x2="17.5" y1="15" y2="15" class="cell_$procmux$13_CMP0"/>
    <g s:x="3" s:y="5" s:pid="A"/>
    <g s:x="3" s:y="20" s:pid="B"/>
    <g s:x="25" s:y="12.5" s:pid="Y"/>
  </g>
  <g s:type="eq" transform="translate(77,829.5)" s:width="25" s:height="25" id="cell_$procmux$14_CMP0">
    <s:alias val="$eq"/>
    <circle r="12.5" cx="12.5" cy="12.5" class="cell_$procmux$14_CMP0"/>
    <line x1="7.5" x2="17.5" y1="10" y2="10" class="cell_$procmux$14_CMP0"/>
    <line x1="7.5" x2="17.5" y1="15" y2="15" class="cell_$procmux$14_CMP0"/>
    <g s:x="3" s:y="5" s:pid="A"/>
    <g s:x="3" s:y="20" s:pid="B"/>
    <g s:x="25" s:y="12.5" s:pid="Y"/>
  </g>
  <g s:type="eq" transform="translate(77,894.5)" s:width="25" s:height="25" id="cell_$procmux$15_CMP0">
    <s:alias val="$eq"/>
    <circle r="12.5" cx="12.5" cy="12.5" class="cell_$procmux$15_CMP0"/>
    <line x1="7.5" x2="17.5" y1="10" y2="10" class="cell_$procmux$15_CMP0"/>
    <line x1="7.5" x2="17.5" y1="15" y2="15" class="cell_$procmux$15_CMP0"/>
    <g s:x="3" s:y="5" s:pid="A"/>
    <g s:x="3" s:y="20" s:pid="B"/>
    <g s:x="25" s:y="12.5" s:pid="Y"/>
  </g>
  <g s:type="eq" transform="translate(77,959.5)" s:width="25" s:height="25" id="cell_$procmux$16_CMP0">
    <s:alias val="$eq"/>
    <circle r="12.5" cx="12.5" cy="12.5" class="cell_$procmux$16_CMP0"/>
    <line x1="7.5" x2="17.5" y1="10" y2="10" class="cell_$procmux$16_CMP0"/>
    <line x1="7.5" x2="17.5" y1="15" y2="15" class="cell_$procmux$16_CMP0"/>
    <g s:x="3" s:y="5" s:pid="A"/>
    <g s:x="3" s:y="20" s:pid="B"/>
    <g s:x="25" s:y="12.5" s:pid="Y"/>
  </g>
  <g s:type="eq" transform="translate(77,1089.5)" s:width="25" s:height="25" id="cell_$procmux$17_CMP0">
    <s:alias val="$eq"/>
    <circle r="12.5" cx="12.5" cy="12.5" class="cell_$procmux$17_CMP0"/>
    <line x1="7.5" x2="17.5" y1="10" y2="10" class="cell_$procmux$17_CMP0"/>
    <line x1="7.5" x2="17.5" y1="15" y2="15" class="cell_$procmux$17_CMP0"/>
    <g s:x="3" s:y="5" s:pid="A"/>
    <g s:x="3" s:y="20" s:pid="B"/>
    <g s:x="25" s:y="12.5" s:pid="Y"/>
  </g>
  <g s:type="eq" transform="translate(77,1024.5)" s:width="25" s:height="25" id="cell_$procmux$18_CMP0">
    <s:alias val="$eq"/>
    <circle r="12.5" cx="12.5" cy="12.5" class="cell_$procmux$18_CMP0"/>
    <line x1="7.5" x2="17.5" y1="10" y2="10" class="cell_$procmux$18_CMP0"/>
    <line x1="7.5" x2="17.5" y1="15" y2="15" class="cell_$procmux$18_CMP0"/>
    <g s:x="3" s:y="5" s:pid="A"/>
    <g s:x="3" s:y="20" s:pid="B"/>
    <g s:x="25" s:y="12.5" s:pid="Y"/>
  </g>
  <g s:type="mux" transform="translate(393,12)" s:width="20" s:height="40" id="cell_$procmux$2">
    <s:alias val="$pmux"/>
    <s:alias val="$mux"/>
    <s:alias val="$_MUX_"/>
    <path d="M0,0 L20,10 L20,30 L0,40 Z" class="cell_$procmux$2"/>
    <g s:x="0" s:y="10" s:pid="A"/>
    <g s:x="0" s:y="30" s:pid="B"/>
    <g s:x="10" s:y="35" s:pid="S"/>
    <g s:x="20" s:y="20" s:pid="Y"/>
  </g>
  <g s:type="eq" transform="translate(77,114.5)" s:width="25" s:height="25" id="cell_$procmux$3_CMP0">
    <s:alias val="$eq"/>
    <circle r="12.5" cx="12.5" cy="12.5" class="cell_$procmux$3_CMP0"/>
    <line x1="7.5" x2="17.5" y1="10" y2="10" class="cell_$procmux$3_CMP0"/>
    <line x1="7.5" x2="17.5" y1="15" y2="15" class="cell_$procmux$3_CMP0"/>
    <g s:x="3" s:y="5" s:pid="A"/>
    <g s:x="3" s:y="20" s:pid="B"/>
    <g s:x="25" s:y="12.5" s:pid="Y"/>
  </g>
  <g s:type="eq" transform="translate(77,49.5)" s:width="25" s:height="25" id="cell_$procmux$4_CMP0">
    <s:alias val="$eq"/>
    <circle r="12.5" cx="12.5" cy="12.5" class="cell_$procmux$4_CMP0"/>
    <line x1="7.5" x2="17.5" y1="10" y2="10" class="cell_$procmux$4_CMP0"/>
    <line x1="7.5" x2="17.5" y1="15" y2="15" class="cell_$procmux$4_CMP0"/>
    <g s:x="3" s:y="5" s:pid="A"/>
    <g s:x="3" s:y="20" s:pid="B"/>
    <g s:x="25" s:y="12.5" s:pid="Y"/>
  </g>
  <g s:type="eq" transform="translate(77,179.5)" s:width="25" s:height="25" id="cell_$procmux$5_CMP0">
    <s:alias val="$eq"/>
    <circle r="12.5" cx="12.5" cy="12.5" class="cell_$procmux$5_CMP0"/>
    <line x1="7.5" x2="17.5" y1="10" y2="10" class="cell_$procmux$5_CMP0"/>
    <line x1="7.5" x2="17.5" y1="15" y2="15" class="cell_$procmux$5_CMP0"/>
    <g s:x="3" s:y="5" s:pid="A"/>
    <g s:x="3" s:y="20" s:pid="B"/>
    <g s:x="25" s:y="12.5" s:pid="Y"/>
  </g>
  <g s:type="eq" transform="translate(77,244.5)" s:width="25" s:height="25" id="cell_$procmux$6_CMP0">
    <s:alias val="$eq"/>
    <circle r="12.5" cx="12.5" cy="12.5" class="cell_$procmux$6_CMP0"/>
    <line x1="7.5" x2="17.5" y1="10" y2="10" class="cell_$procmux$6_CMP0"/>
    <line x1="7.5" x2="17.5" y1="15" y2="15" class="cell_$procmux$6_CMP0"/>
    <g s:x="3" s:y="5" s:pid="A"/>
    <g s:x="3" s:y="20" s:pid="B"/>
    <g s:x="25" s:y="12.5" s:pid="Y"/>
  </g>
  <g s:type="eq" transform="translate(77,309.5)" s:width="25" s:height="25" id="cell_$procmux$7_CMP0">
    <s:alias val="$eq"/>
    <circle r="12.5" cx="12.5" cy="12.5" class="cell_$procmux$7_CMP0"/>
    <line x1="7.5" x2="17.5" y1="10" y2="10" class="cell_$procmux$7_CMP0"/>
    <line x1="7.5" x2="17.5" y1="15" y2="15" class="cell_$procmux$7_CMP0"/>
    <g s:x="3" s:y="5" s:pid="A"/>
    <g s:x="3" s:y="20" s:pid="B"/>
    <g s:x="25" s:y="12.5" s:pid="Y"/>
  </g>
  <g s:type="eq" transform="translate(77,374.5)" s:width="25" s:height="25" id="cell_$procmux$8_CMP0">
    <s:alias val="$eq"/>
    <circle r="12.5" cx="12.5" cy="12.5" class="cell_$procmux$8_CMP0"/>
    <line x1="7.5" x2="17.5" y1="10" y2="10" class="cell_$procmux$8_CMP0"/>
    <line x1="7.5" x2="17.5" y1="15" y2="15" class="cell_$procmux$8_CMP0"/>
    <g s:x="3" s:y="5" s:pid="A"/>
    <g s:x="3" s:y="20" s:pid="B"/>
    <g s:x="25" s:y="12.5" s:pid="Y"/>
  </g>
  <g s:type="eq" transform="translate(77,439.5)" s:width="25" s:height="25" id="cell_$procmux$9_CMP0">
    <s:alias val="$eq"/>
    <circle r="12.5" cx="12.5" cy="12.5" class="cell_$procmux$9_CMP0"/>
    <line x1="7.5" x2="17.5" y1="10" y2="10" class="cell_$procmux$9_CMP0"/>
    <line x1="7.5" x2="17.5" y1="15" y2="15" class="cell_$procmux$9_CMP0"/>
    <g s:x="3" s:y="5" s:pid="A"/>
    <g s:x="3" s:y="20" s:pid="B"/>
    <g s:x="25" s:y="12.5" s:pid="Y"/>
  </g>
  <g s:type="inputExt" transform="translate(12,514.5)" s:width="30" s:height="20" id="cell_bin">
    <text x="15" y="-4" class="nodelabel cell_bin" s:attribute="ref">bin</text>
    <s:alias val="$_inputExt_"/>
    <path d="M0,0 L0,20 L15,20 L30,10 L15,0 Z" class="cell_bin"/>
    <g s:x="28" s:y="10" s:pid="Y"/>
  </g>
  <g s:type="outputExt" transform="translate(448,22)" s:width="30" s:height="20" id="cell_bcd">
    <text x="15" y="-4" class="nodelabel cell_bcd" s:attribute="ref">bcd</text>
    <s:alias val="$_outputExt_"/>
    <path d="M30,0 L30,20 L15,20 L0,10 L15,0 Z" class="cell_bcd"/>
    <g s:x="0" s:y="10" s:pid="A"/>
  </g>
  <g s:type="constant" transform="translate(12,579.5)" s:width="30" s:height="20" id="cell_1000">
    <text x="15" y="-4" class="nodelabel cell_1000" s:attribute="ref">0x8</text>
    <s:alias val="$_constant_"/>
    <rect width="30" height="20" class="cell_1000"/>
    <g s:x="30" s:y="10" s:pid="Y"/>
  </g>
  <g s:type="constant" transform="translate(12,644.5)" s:width="30" s:height="20" id="cell_0111">
    <text x="15" y="-4" class="nodelabel cell_0111" s:attribute="ref">0x7</text>
    <s:alias val="$_constant_"/>
    <rect width="30" height="20" class="cell_0111"/>
    <g s:x="30" s:y="10" s:pid="Y"/>
  </g>
  <g s:type="constant" transform="translate(12,709.5)" s:width="30" s:height="20" id="cell_0110">
    <text x="15" y="-4" class="nodelabel cell_0110" s:attribute="ref">0x6</text>
    <s:alias val="$_constant_"/>
    <rect width="30" height="20" class="cell_0110"/>
    <g s:x="30" s:y="10" s:pid="Y"/>
  </g>
  <g s:type="constant" transform="translate(12,774.5)" s:width="30" s:height="20" id="cell_0101">
    <text x="15" y="-4" class="nodelabel cell_0101" s:attribute="ref">0x5</text>
    <s:alias val="$_constant_"/>
    <rect width="30" height="20" class="cell_0101"/>
    <g s:x="30" s:y="10" s:pid="Y"/>
  </g>
  <g s:type="constant" transform="translate(12,839.5)" s:width="30" s:height="20" id="cell_0100">
    <text x="15" y="-4" class="nodelabel cell_0100" s:attribute="ref">0x4</text>
    <s:alias val="$_constant_"/>
    <rect width="30" height="20" class="cell_0100"/>
    <g s:x="30" s:y="10" s:pid="Y"/>
  </g>
  <g s:type="constant" transform="translate(12,904.5)" s:width="30" s:height="20" id="cell_0011">
    <text x="15" y="-4" class="nodelabel cell_0011" s:attribute="ref">0x3</text>
    <s:alias val="$_constant_"/>
    <rect width="30" height="20" class="cell_0011"/>
    <g s:x="30" s:y="10" s:pid="Y"/>
  </g>
  <g s:type="constant" transform="translate(12,969.5)" s:width="30" s:height="20" id="cell_0010">
    <text x="15" y="-4" class="nodelabel cell_0010" s:attribute="ref">0x2</text>
    <s:alias val="$_constant_"/>
    <rect width="30" height="20" class="cell_0010"/>
    <g s:x="30" s:y="10" s:pid="Y"/>
  </g>
  <g s:type="constant" transform="translate(12,1099.5)" s:width="30" s:height="20" id="cell_0001">
    <text x="15" y="-4" class="nodelabel cell_0001" s:attribute="ref">0x1</text>
    <s:alias val="$_constant_"/>
    <rect width="30" height="20" class="cell_0001"/>
    <g s:x="30" s:y="10" s:pid="Y"/>
  </g>
  <g s:type="constant" transform="translate(12,1034.5)" s:width="30" s:height="20" id="cell_0000">
    <text x="15" y="-4" class="nodelabel cell_0000" s:attribute="ref">0x0</text>
    <s:alias val="$_constant_"/>
    <rect width="30" height="20" class="cell_0000"/>
    <g s:x="30" s:y="10" s:pid="Y"/>
  </g>
  <g s:type="constant" transform="translate(172,32)" s:width="30" s:height="20" id="cell_00000000000000010000001000000011000001000000010100000110000001110000100000001001000100000001000100010010000100110001010000010101">
    <text x="15" y="-4" class="nodelabel cell_00000000000000010000001000000011000001000000010100000110000001110000100000001001000100000001000100010010000100110001010000010101" s:attribute="ref">0x10203040506071000000000000000</text>
    <s:alias val="$_constant_"/>
    <rect width="30" height="20" class="cell_00000000000000010000001000000011000001000000010100000110000001110000100000001001000100000001000100010010000100110001010000010101"/>
    <g s:x="30" s:y="10" s:pid="Y"/>
  </g>
  <g s:type="constant" transform="translate(12,124.5)" s:width="30" s:height="20" id="cell_1111">
    <text x="15" y="-4" class="nodelabel cell_1111" s:attribute="ref">0xf</text>
    <s:alias val="$_constant_"/>
    <rect width="30" height="20" class="cell_1111"/>
    <g s:x="30" s:y="10" s:pid="Y"/>
  </g>
  <g s:type="constant" transform="translate(12,59.5)" s:width="30" s:height="20" id="cell_1110">
    <text x="15" y="-4" class="nodelabel cell_1110" s:attribute="ref">0xe</text>
    <s:alias val="$_constant_"/>
    <rect width="30" height="20" class="cell_1110"/>
    <g s:x="30" s:y="10" s:pid="Y"/>
  </g>
  <g s:type="constant" transform="translate(12,189.5)" s:width="30" s:height="20" id="cell_1101">
    <text x="15" y="-4" class="nodelabel cell_1101" s:attribute="ref">0xd</text>
    <s:alias val="$_constant_"/>
    <rect width="30" height="20" class="cell_1101"/>
    <g s:x="30" s:y="10" s:pid="Y"/>
  </g>
  <g s:type="constant" transform="translate(12,254.5)" s:width="30" s:height="20" id="cell_1100">
    <text x="15" y="-4" class="nodelabel cell_1100" s:attribute="ref">0xc</text>
    <s:alias val="$_constant_"/>
    <rect width="30" height="20" class="cell_1100"/>
    <g s:x="30" s:y="10" s:pid="Y"/>
  </g>
  <g s:type="constant" transform="translate(12,319.5)" s:width="30" s:height="20" id="cell_1011">
    <text x="15" y="-4" class="nodelabel cell_1011" s:attribute="ref">0xb</text>
    <s:alias val="$_constant_"/>
    <rect width="30" height="20" class="cell_1011"/>
    <g s:x="30" s:y="10" s:pid="Y"/>
  </g>
  <g s:type="constant" transform="translate(12,384.5)" s:width="30" s:height="20" id="cell_1010">
    <text x="15" y="-4" class="nodelabel cell_1010" s:attribute="ref">0xa</text>
    <s:alias val="$_constant_"/>
    <rect width="30" height="20" class="cell_1010"/>
    <g s:x="30" s:y="10" s:pid="Y"/>
  </g>
  <g s:type="constant" transform="translate(12,449.5)" s:width="30" s:height="20" id="cell_1001">
    <text x="15" y="-4" class="nodelabel cell_1001" s:attribute="ref">0x9</text>
    <s:alias val="$_constant_"/>
    <rect width="30" height="20" class="cell_1001"/>
    <g s:x="30" s:y="10" s:pid="Y"/>
  </g>
  <g s:type="join" transform="translate(191.92307692307693,381.5)" s:width="4" s:height="40" id="cell_$join$,23,24,25,26,27,28,29,14,15,16,17,18,19,20,21,22,">
    <rect width="5" height="320" class="splitjoinBody" s:generic="body"/>
    <s:alias val="$_join_"/>
    <g s:x="5" s:y="20" s:pid="out"/>
    <g transform="translate(0,10)" s:x="0" s:y="10" s:pid="in0">
      <text x="-3" y="-4" class="inputPortLabel">0</text>
    </g>
    <g transform="translate(0,30)" s:x="0" s:y="10" s:pid="in0">
      <text x="-3" y="-4" class="inputPortLabel">1</text>
    </g>
    <g transform="translate(0,50)" s:x="0" s:y="10" s:pid="in0">
      <text x="-3" y="-4" class="inputPortLabel">2</text>
    </g>
    <g transform="translate(0,70)" s:x="0" s:y="10" s:pid="in0">
      <text x="-3" y="-4" class="inputPortLabel">3</text>
    </g>
    <g transform="translate(0,90)" s:x="0" s:y="10" s:pid="in0">
      <text x="-3" y="-4" class="inputPortLabel">4</text>
    </g>
    <g transform="translate(0,110)" s:x="0" s:y="10" s:pid="in0">
      <text x="-3" y="-4" class="inputPortLabel">5</text>
    </g>
    <g transform="translate(0,130)" s:x="0" s:y="10" s:pid="in0">
      <text x="-3" y="-4" class="inputPortLabel">6</text>
    </g>
    <g transform="translate(0,150)" s:x="0" s:y="10" s:pid="in0">
      <text x="-3" y="-4" class="inputPortLabel">7</text>
    </g>
    <g transform="translate(0,170)" s:x="0" s:y="10" s:pid="in0">
      <text x="-3" y="-4" class="inputPortLabel">8</text>
    </g>
    <g transform="translate(0,190)" s:x="0" s:y="10" s:pid="in0">
      <text x="-3" y="-4" class="inputPortLabel">9</text>
    </g>
    <g transform="translate(0,210)" s:x="0" s:y="10" s:pid="in0">
      <text x="-3" y="-4" class="inputPortLabel">10</text>
    </g>
    <g transform="translate(0,230)" s:x="0" s:y="10" s:pid="in0">
      <text x="-3" y="-4" class="inputPortLabel">11</text>
    </g>
    <g transform="translate(0,250)" s:x="0" s:y="10" s:pid="in0">
      <text x="-3" y="-4" class="inputPortLabel">12</text>
    </g>
    <g transform="translate(0,270)" s:x="0" s:y="10" s:pid="in0">
      <text x="-3" y="-4" class="inputPortLabel">13</text>
    </g>
    <g transform="translate(0,290)" s:x="0" s:y="10" s:pid="in0">
      <text x="-3" y="-4" class="inputPortLabel">14</text>
    </g>
    <g transform="translate(0,310)" s:x="0" s:y="10" s:pid="in0">
      <text x="-3" y="-4" class="inputPortLabel">15</text>
    </g>
  </g>
  <line x1="40" x2="80" y1="524.5" y2="524.5" class="net_2,3,4,5"/>
  <line x1="40" x2="62" y1="524.5" y2="524.5" class="net_2,3,4,5"/>
  <line x1="62" x2="62" y1="524.5" y2="639.5" class="net_2,3,4,5"/>
  <circle cx="62" cy="524.5" r="2" style="fill:#000" class="net_2,3,4,5"/>
  <circle cx="62" cy="639.5" r="2" style="fill:#000" class="net_2,3,4,5"/>
  <line x1="62" x2="80" y1="639.5" y2="639.5" class="net_2,3,4,5"/>
  <line x1="40" x2="62" y1="524.5" y2="524.5" class="net_2,3,4,5"/>
  <line x1="62" x2="62" y1="524.5" y2="704.5" class="net_2,3,4,5"/>
  <circle cx="62" cy="704.5" r="2" style="fill:#000" class="net_2,3,4,5"/>
  <line x1="62" x2="80" y1="704.5" y2="704.5" class="net_2,3,4,5"/>
  <line x1="40" x2="62" y1="524.5" y2="524.5" class="net_2,3,4,5"/>
  <line x1="62" x2="62" y1="524.5" y2="769.5" class="net_2,3,4,5"/>
  <circle cx="62" cy="769.5" r="2" style="fill:#000" class="net_2,3,4,5"/>
  <line x1="62" x2="80" y1="769.5" y2="769.5" class="net_2,3,4,5"/>
  <line x1="40" x2="62" y1="524.5" y2="524.5" class="net_2,3,4,5"/>
  <line x1="62" x2="62" y1="524.5" y2="834.5" class="net_2,3,4,5"/>
  <circle cx="62" cy="834.5" r="2" style="fill:#000" class="net_2,3,4,5"/>
  <line x1="62" x2="80" y1="834.5" y2="834.5" class="net_2,3,4,5"/>
  <line x1="40" x2="62" y1="524.5" y2="524.5" class="net_2,3,4,5"/>
  <line x1="62" x2="62" y1="524.5" y2="899.5" class="net_2,3,4,5"/>
  <circle cx="62" cy="899.5" r="2" style="fill:#000" class="net_2,3,4,5"/>
  <line x1="62" x2="80" y1="899.5" y2="899.5" class="net_2,3,4,5"/>
  <line x1="40" x2="62" y1="524.5" y2="524.5" class="net_2,3,4,5"/>
  <line x1="62" x2="62" y1="524.5" y2="964.5" class="net_2,3,4,5"/>
  <circle cx="62" cy="964.5" r="2" style="fill:#000" class="net_2,3,4,5"/>
  <line x1="62" x2="80" y1="964.5" y2="964.5" class="net_2,3,4,5"/>
  <line x1="40" x2="62" y1="524.5" y2="524.5" class="net_2,3,4,5"/>
  <line x1="62" x2="62" y1="524.5" y2="1094.5" class="net_2,3,4,5"/>
  <line x1="62" x2="80" y1="1094.5" y2="1094.5" class="net_2,3,4,5"/>
  <line x1="40" x2="62" y1="524.5" y2="524.5" class="net_2,3,4,5"/>
  <line x1="62" x2="62" y1="524.5" y2="1029.5" class="net_2,3,4,5"/>
  <circle cx="62" cy="1029.5" r="2" style="fill:#000" class="net_2,3,4,5"/>
  <line x1="62" x2="80" y1="1029.5" y2="1029.5" class="net_2,3,4,5"/>
  <line x1="40" x2="62" y1="524.5" y2="524.5" class="net_2,3,4,5"/>
  <line x1="62" x2="62" y1="524.5" y2="119.5" class="net_2,3,4,5"/>
  <circle cx="62" cy="119.5" r="2" style="fill:#000" class="net_2,3,4,5"/>
  <line x1="62" x2="80" y1="119.5" y2="119.5" class="net_2,3,4,5"/>
  <line x1="40" x2="62" y1="524.5" y2="524.5" class="net_2,3,4,5"/>
  <line x1="62" x2="62" y1="524.5" y2="54.5" class="net_2,3,4,5"/>
  <line x1="62" x2="80" y1="54.5" y2="54.5" class="net_2,3,4,5"/>
  <line x1="40" x2="62" y1="524.5" y2="524.5" class="net_2,3,4,5"/>
  <line x1="62" x2="62" y1="524.5" y2="184.5" class="net_2,3,4,5"/>
  <circle cx="62" cy="184.5" r="2" style="fill:#000" class="net_2,3,4,5"/>
  <line x1="62" x2="80" y1="184.5" y2="184.5" class="net_2,3,4,5"/>
  <line x1="40" x2="62" y1="524.5" y2="524.5" class="net_2,3,4,5"/>
  <line x1="62" x2="62" y1="524.5" y2="249.5" class="net_2,3,4,5"/>
  <circle cx="62" cy="249.5" r="2" style="fill:#000" class="net_2,3,4,5"/>
  <line x1="62" x2="80" y1="249.5" y2="249.5" class="net_2,3,4,5"/>
  <line x1="40" x2="62" y1="524.5" y2="524.5" class="net_2,3,4,5"/>
  <line x1="62" x2="62" y1="524.5" y2="314.5" class="net_2,3,4,5"/>
  <circle cx="62" cy="314.5" r="2" style="fill:#000" class="net_2,3,4,5"/>
  <line x1="62" x2="80" y1="314.5" y2="314.5" class="net_2,3,4,5"/>
  <line x1="40" x2="62" y1="524.5" y2="524.5" class="net_2,3,4,5"/>
  <line x1="62" x2="62" y1="524.5" y2="379.5" class="net_2,3,4,5"/>
  <circle cx="62" cy="379.5" r="2" style="fill:#000" class="net_2,3,4,5"/>
  <line x1="62" x2="80" y1="379.5" y2="379.5" class="net_2,3,4,5"/>
  <line x1="40" x2="62" y1="524.5" y2="524.5" class="net_2,3,4,5"/>
  <line x1="62" x2="62" y1="524.5" y2="444.5" class="net_2,3,4,5"/>
  <circle cx="62" cy="444.5" r="2" style="fill:#000" class="net_2,3,4,5"/>
  <line x1="62" x2="80" y1="444.5" y2="444.5" class="net_2,3,4,5"/>
  <line x1="42" x2="52" y1="589.5" y2="589.5" class="net_30,31,32,33"/>
  <line x1="52" x2="52" y1="589.5" y2="539.5" class="net_30,31,32,33"/>
  <line x1="52" x2="80" y1="539.5" y2="539.5" class="net_30,31,32,33"/>
  <line x1="42" x2="80" y1="654.5" y2="654.5" class="net_34,35,36,37"/>
  <line x1="42" x2="80" y1="719.5" y2="719.5" class="net_38,39,40,41"/>
  <line x1="42" x2="80" y1="784.5" y2="784.5" class="net_42,43,44,45"/>
  <line x1="42" x2="80" y1="849.5" y2="849.5" class="net_46,47,48,49"/>
  <line x1="42" x2="80" y1="914.5" y2="914.5" class="net_50,51,52,53"/>
  <line x1="42" x2="80" y1="979.5" y2="979.5" class="net_54,55,56,57"/>
  <line x1="42" x2="80" y1="1109.5" y2="1109.5" class="net_58,59,60,61"/>
  <line x1="42" x2="80" y1="1044.5" y2="1044.5" class="net_62,63,64,65"/>
  <line x1="202" x2="393" y1="42" y2="42" class="net_66,67,68,69,70,71,72,73,74,75,76,77,78,79,80,81,82,83,84,85,86,87,88,89,90,91,92,93,94,95,96,97,98,99,100,101,102,103,104,105,106,107,108,109,110,111,112,113,114,115,116,117,118,119,120,121,122,123,124,125,126,127,128,129,130,131,132,133,134,135,136,137,138,139,140,141,142,143,144,145,146,147,148,149,150,151,152,153,154,155,156,157,158,159,160,161,162,163,164,165,166,167,168,169,170,171,172,173,174,175,176,177,178,179,180,181,182,183,184,185,186,187,188,189,190,191,192,193"/>
  <line x1="197.92307692307693" x2="403" y1="402" y2="402" class="net_23,24,25,26,27,28,29,14,15,16,17,18,19,20,21,22"/>
  <line x1="403" x2="403" y1="402" y2="47" class="net_23,24,25,26,27,28,29,14,15,16,17,18,19,20,21,22"/>
  <line x1="42" x2="80" y1="134.5" y2="134.5" class="net_194,195,196,197"/>
  <line x1="42" x2="80" y1="69.5" y2="69.5" class="net_198,199,200,201"/>
  <line x1="42" x2="80" y1="199.5" y2="199.5" class="net_202,203,204,205"/>
  <line x1="42" x2="80" y1="264.5" y2="264.5" class="net_206,207,208,209"/>
  <line x1="42" x2="80" y1="329.5" y2="329.5" class="net_210,211,212,213"/>
  <line x1="42" x2="80" y1="394.5" y2="394.5" class="net_214,215,216,217"/>
  <line x1="42" x2="80" y1="459.5" y2="459.5" class="net_218,219,220,221"/>
  <line x1="413" x2="448" y1="32" y2="32" class="net_6,7,8,9,10,11,12,13"/>
  <line x1="102" x2="192.42307692307693" y1="127" y2="127" class="net_23"/>
  <line x1="192.42307692307693" x2="192.42307692307693" y1="127" y2="391.5" class="net_23"/>
  <line x1="102" x2="192.42307692307693" y1="62" y2="62" class="net_24"/>
  <line x1="192.42307692307693" x2="192.42307692307693" y1="62" y2="411.5" class="net_24"/>
  <line x1="102" x2="152" y1="192" y2="192" class="net_25"/>
  <line x1="152" x2="152" y1="192" y2="432" class="net_25"/>
  <line x1="152" x2="191.92307692307693" y1="432" y2="432" class="net_25"/>
  <line x1="102" x2="142" y1="257" y2="257" class="net_26"/>
  <line x1="142" x2="142" y1="257" y2="452" class="net_26"/>
  <line x1="142" x2="191.92307692307693" y1="452" y2="452" class="net_26"/>
  <line x1="102" x2="132" y1="322" y2="322" class="net_27"/>
  <line x1="132" x2="132" y1="322" y2="472" class="net_27"/>
  <line x1="132" x2="191.92307692307693" y1="472" y2="472" class="net_27"/>
  <line x1="102" x2="122" y1="387" y2="387" class="net_28"/>
  <line x1="122" x2="122" y1="387" y2="492" class="net_28"/>
  <line x1="122" x2="191.92307692307693" y1="492" y2="492" class="net_28"/>
  <line x1="102" x2="112" y1="452" y2="452" class="net_29"/>
  <line x1="112" x2="112" y1="452" y2="512" class="net_29"/>
  <line x1="112" x2="191.92307692307693" y1="512" y2="512" class="net_29"/>
  <line x1="102" x2="191.92307692307693" y1="532" y2="532" class="net_14"/>
  <line x1="102" x2="112" y1="647" y2="647" class="net_15"/>
  <line x1="112" x2="112" y1="647" y2="552" class="net_15"/>
  <line x1="112" x2="191.92307692307693" y1="552" y2="552" class="net_15"/>
  <line x1="102" x2="122" y1="712" y2="712" class="net_16"/>
  <line x1="122" x2="122" y1="712" y2="572" class="net_16"/>
  <line x1="122" x2="191.92307692307693" y1="572" y2="572" class="net_16"/>
  <line x1="102" x2="132" y1="777" y2="777" class="net_17"/>
  <line x1="132" x2="132" y1="777" y2="592" class="net_17"/>
  <line x1="132" x2="191.92307692307693" y1="592" y2="592" class="net_17"/>
  <line x1="102" x2="142" y1="842" y2="842" class="net_18"/>
  <line x1="142" x2="142" y1="842" y2="612" class="net_18"/>
  <line x1="142" x2="191.92307692307693" y1="612" y2="612" class="net_18"/>
  <line x1="102" x2="152" y1="907" y2="907" class="net_19"/>
  <line x1="152" x2="152" y1="907" y2="632" class="net_19"/>
  <line x1="152" x2="191.92307692307693" y1="632" y2="632" class="net_19"/>
  <line x1="102" x2="162" y1="972" y2="972" class="net_20"/>
  <line x1="162" x2="162" y1="972" y2="652" class="net_20"/>
  <line x1="162" x2="191.92307692307693" y1="652" y2="652" class="net_20"/>
  <line x1="102" x2="192.42307692307693" y1="1102" y2="1102" class="net_21"/>
  <line x1="192.42307692307693" x2="192.42307692307693" y1="1102" y2="672.5" class="net_21"/>
  <line x1="102" x2="192.42307692307693" y1="1037" y2="1037" class="net_22"/>
  <line x1="192.42307692307693" x2="192.42307692307693" y1="1037" y2="692.5" class="net_22"/>
</svg>
