<svg xmlns="http://www.w3.org/2000/svg" xmlns:xlink="http://www.w3.org/1999/xlink" xmlns:s="https://github.com/nturley/netlistsvg" width="344" height="212.5">
  <style>svg {
    stroke:#000;
    fill:none;
  }
  text {
    fill:#000;
    stroke:none;
    font-size:10px;
    font-weight: bold;
    font-family: "Courier New", monospace;
  }
  .nodelabel {
    text-anchor: middle;
  }
  .inputPortLabel {
    text-anchor: end;
  }
  .splitjoinBody {
    fill:#000;
  }</style>
  <g s:type="and" transform="translate(155,115.5)" s:width="30" s:height="25" id="cell_$and$/code/openhdl/math/full_adder/full_adder.sv:10$4">
    <s:alias val="$and"/>
    <s:alias val="$logic_and"/>
    <s:alias val="$_AND_"/>
    <path d="M0,0 L0,25 L15,25 A15 12.5 0 0 0 15,0 Z" class="cell_$and$/code/openhdl/math/full_adder/full_adder.sv:10$4"/>
    <g s:x="0" s:y="5" s:pid="A"/>
    <g s:x="0" s:y="20" s:pid="B"/>
    <g s:x="30" s:y="12.5" s:pid="Y"/>
  </g>
  <g s:type="and" transform="translate(155,175.5)" s:width="30" s:height="25" id="cell_$and$/code/openhdl/math/full_adder/full_adder.sv:10$5">
    <s:alias val="$and"/>
    <s:alias val="$logic_and"/>
    <s:alias val="$_AND_"/>
    <path d="M0,0 L0,25 L15,25 A15 12.5 0 0 0 15,0 Z" class="cell_$and$/code/openhdl/math/full_adder/full_adder.sv:10$5"/>
    <g s:x="0" s:y="5" s:pid="A"/>
    <g s:x="0" s:y="20" s:pid="B"/>
    <g s:x="30" s:y="12.5" s:pid="Y"/>
  </g>
  <g s:type="or" transform="translate(81,108)" s:width="30" s:height="25" id="cell_$or$/code/openhdl/math/full_adder/full_adder.sv:10$3">
    <s:alias val="$or"/>
    <s:alias val="$logic_or"/>
    <s:alias val="$_OR_"/>
    <path d="M0,25 L0,25 L15,25 A15 12.5 0 0 0 15,0 L0,0" class="cell_$or$/code/openhdl/math/full_adder/full_adder.sv:10$3"/>
    <path d="M0,0 A30 25 0 0 1 0,25" class="cell_$or$/code/openhdl/math/full_adder/full_adder.sv:10$3"/>
    <g s:x="3" s:y="5" s:pid="A"/>
    <g s:x="3" s:y="20" s:pid="B"/>
    <g s:x="30" s:y="12.5" s:pid="Y"/>
  </g>
  <g s:type="or" transform="translate(223,168)" s:width="30" s:height="25" id="cell_$or$/code/openhdl/math/full_adder/full_adder.sv:10$6">
    <s:alias val="$or"/>
    <s:alias val="$logic_or"/>
    <s:alias val="$_OR_"/>
    <path d="M0,25 L0,25 L15,25 A15 12.5 0 0 0 15,0 L0,0" class="cell_$or$/code/openhdl/math/full_adder/full_adder.sv:10$6"/>
    <path d="M0,0 A30 25 0 0 1 0,25" class="cell_$or$/code/openhdl/math/full_adder/full_adder.sv:10$6"/>
    <g s:x="3" s:y="5" s:pid="A"/>
    <g s:x="3" s:y="20" s:pid="B"/>
    <g s:x="30" s:y="12.5" s:pid="Y"/>
  </g>
  <g s:type="reduce_xor" transform="translate(154,12)" s:width="33" s:height="25" id="cell_$xor$/code/openhdl/math/full_adder/full_adder.sv:9$1">
    <s:alias val="$xor"/>
    <s:alias val="$reduce_xor"/>
    <s:alias val="$_XOR_"/>
    <path d="M3,0 A30 25 0 0 1 3,25 A30 25 0 0 0 33,12.5 A30 25 0 0 0 3,0" class="cell_$xor$/code/openhdl/math/full_adder/full_adder.sv:9$1"/>
    <path d="M0,0 A30 25 0 0 1 0,25" class="cell_$xor$/code/openhdl/math/full_adder/full_adder.sv:9$1"/>
    <g s:x="3" s:y="5" s:pid="A"/>
    <g s:x="3" s:y="20" s:pid="B"/>
    <g s:x="33" s:y="12.5" s:pid="Y"/>
  </g>
  <g s:type="reduce_xor" transform="translate(222,43)" s:width="33" s:height="25" id="cell_$xor$/code/openhdl/math/full_adder/full_adder.sv:9$2">
    <s:alias val="$xor"/>
    <s:alias val="$reduce_xor"/>
    <s:alias val="$_XOR_"/>
    <path d="M3,0 A30 25 0 0 1 3,25 A30 25 0 0 0 33,12.5 A30 25 0 0 0 3,0" class="cell_$xor$/code/openhdl/math/full_adder/full_adder.sv:9$2"/>
    <path d="M0,0 A30 25 0 0 1 0,25" class="cell_$xor$/code/openhdl/math/full_adder/full_adder.sv:9$2"/>
    <g s:x="3" s:y="5" s:pid="A"/>
    <g s:x="3" s:y="20" s:pid="B"/>
    <g s:x="33" s:y="12.5" s:pid="Y"/>
  </g>
  <g s:type="inputExt" transform="translate(12,53)" s:width="30" s:height="20" id="cell_i_a">
    <text x="15" y="-4" class="nodelabel cell_i_a" s:attribute="ref">i_a</text>
    <s:alias val="$_inputExt_"/>
    <path d="M0,0 L0,20 L15,20 L30,10 L15,0 Z" class="cell_i_a"/>
    <g s:x="28" s:y="10" s:pid="Y"/>
  </g>
  <g s:type="inputExt" transform="translate(12,118)" s:width="30" s:height="20" id="cell_i_b">
    <text x="15" y="-4" class="nodelabel cell_i_b" s:attribute="ref">i_b</text>
    <s:alias val="$_inputExt_"/>
    <path d="M0,0 L0,20 L15,20 L30,10 L15,0 Z" class="cell_i_b"/>
    <g s:x="28" s:y="10" s:pid="Y"/>
  </g>
  <g s:type="inputExt" transform="translate(77,53)" s:width="30" s:height="20" id="cell_i_carry">
    <text x="15" y="-4" class="nodelabel cell_i_carry" s:attribute="ref">i_carry</text>
    <s:alias val="$_inputExt_"/>
    <path d="M0,0 L0,20 L15,20 L30,10 L15,0 Z" class="cell_i_carry"/>
    <g s:x="28" s:y="10" s:pid="Y"/>
  </g>
  <g s:type="outputExt" transform="translate(290,45.5)" s:width="30" s:height="20" id="cell_o_sum">
    <text x="15" y="-4" class="nodelabel cell_o_sum" s:attribute="ref">o_sum</text>
    <s:alias val="$_outputExt_"/>
    <path d="M30,0 L30,20 L15,20 L0,10 L15,0 Z" class="cell_o_sum"/>
    <g s:x="0" s:y="10" s:pid="A"/>
  </g>
  <g s:type="outputExt" transform="translate(290,170.5)" s:width="30" s:height="20" id="cell_o_carry">
    <text x="15" y="-4" class="nodelabel cell_o_carry" s:attribute="ref">o_carry</text>
    <s:alias val="$_outputExt_"/>
    <path d="M30,0 L30,20 L15,20 L0,10 L15,0 Z" class="cell_o_carry"/>
    <g s:x="0" s:y="10" s:pid="A"/>
  </g>
  <line x1="111" x2="155" y1="120.5" y2="120.5" class="net_7"/>
  <line x1="105" x2="129" y1="63" y2="63" class="net_4"/>
  <line x1="129" x2="129" y1="63" y2="135.5" class="net_4"/>
  <circle cx="129" cy="63" r="2" style="fill:#000" class="net_4"/>
  <line x1="129" x2="155" y1="135.5" y2="135.5" class="net_4"/>
  <line x1="105" x2="225" y1="63" y2="63" class="net_4"/>
  <line x1="40" x2="62" y1="63" y2="63" class="net_2"/>
  <line x1="62" x2="62" y1="63" y2="180.5" class="net_2"/>
  <circle cx="62" cy="63" r="2" style="fill:#000" class="net_2"/>
  <line x1="62" x2="155" y1="180.5" y2="180.5" class="net_2"/>
  <line x1="40" x2="62" y1="63" y2="63" class="net_2"/>
  <line x1="62" x2="62" y1="63" y2="113" class="net_2"/>
  <circle cx="62" cy="113" r="2" style="fill:#000" class="net_2"/>
  <line x1="62" x2="84" y1="113" y2="113" class="net_2"/>
  <line x1="40" x2="62" y1="63" y2="63" class="net_2"/>
  <line x1="62" x2="62" y1="63" y2="17" class="net_2"/>
  <line x1="62" x2="157" y1="17" y2="17" class="net_2"/>
  <line x1="40" x2="52" y1="128" y2="128" class="net_3"/>
  <line x1="52" x2="52" y1="128" y2="195.5" class="net_3"/>
  <circle cx="52" cy="128" r="2" style="fill:#000" class="net_3"/>
  <line x1="52" x2="155" y1="195.5" y2="195.5" class="net_3"/>
  <line x1="40" x2="84" y1="128" y2="128" class="net_3"/>
  <line x1="40" x2="52" y1="128" y2="128" class="net_3"/>
  <line x1="52" x2="52" y1="128" y2="32" class="net_3"/>
  <line x1="52" x2="157" y1="32" y2="32" class="net_3"/>
  <line x1="185" x2="197" y1="128" y2="128" class="net_8"/>
  <line x1="197" x2="197" y1="128" y2="173" class="net_8"/>
  <line x1="197" x2="226" y1="173" y2="173" class="net_8"/>
  <line x1="185" x2="226" y1="188" y2="188" class="net_9"/>
  <line x1="187" x2="197" y1="24.5" y2="24.5" class="net_10"/>
  <line x1="197" x2="197" y1="24.5" y2="48" class="net_10"/>
  <line x1="197" x2="225" y1="48" y2="48" class="net_10"/>
  <line x1="255" x2="290" y1="55.5" y2="55.5" class="net_5"/>
  <line x1="253" x2="290" y1="180.5" y2="180.5" class="net_6"/>
</svg>
