<svg xmlns="http://www.w3.org/2000/svg" xmlns:xlink="http://www.w3.org/1999/xlink" xmlns:s="https://github.com/nturley/netlistsvg" width="279" height="211.5">
  <style>svg {
    stroke:#000;
    fill:none;
  }
  text {
    fill:#000;
    stroke:none;
    font-size:10px;
    font-weight: bold;
    font-family: "Courier New", monospace;
  }
  .nodelabel {
    text-anchor: middle;
  }
  .inputPortLabel {
    text-anchor: end;
  }
  .splitjoinBody {
    fill:#000;
  }</style>
  <g s:type="not" transform="translate(162,39.5)" s:width="30" s:height="20" id="cell_$not$/code/libsv/latches/sr_latch.sv:8$2">
    <s:alias val="$_NOT_"/>
    <s:alias val="$not"/>
    <s:alias val="$logic_not"/>
    <path d="M0,0 L0,20 L20,10 Z" class="cell_$not$/code/libsv/latches/sr_latch.sv:8$2"/>
    <circle cx="23" cy="10" r="3" class="cell_$not$/code/libsv/latches/sr_latch.sv:8$2"/>
    <g s:x="0" s:y="10" s:pid="A"/>
    <g s:x="25" s:y="10" s:pid="Y"/>
  </g>
  <g s:type="not" transform="translate(32,179.5)" s:width="30" s:height="20" id="cell_$not$/code/libsv/latches/sr_latch.sv:9$4">
    <s:alias val="$_NOT_"/>
    <s:alias val="$not"/>
    <s:alias val="$logic_not"/>
    <path d="M0,0 L0,20 L20,10 Z" class="cell_$not$/code/libsv/latches/sr_latch.sv:9$4"/>
    <circle cx="23" cy="10" r="3" class="cell_$not$/code/libsv/latches/sr_latch.sv:9$4"/>
    <g s:x="0" s:y="10" s:pid="A"/>
    <g s:x="25" s:y="10" s:pid="Y"/>
  </g>
  <g s:type="or" transform="translate(97,37)" s:width="30" s:height="25" id="cell_$or$/code/libsv/latches/sr_latch.sv:8$1">
    <s:alias val="$or"/>
    <s:alias val="$logic_or"/>
    <s:alias val="$_OR_"/>
    <path d="M0,25 L0,25 L15,25 A15 12.5 0 0 0 15,0 L0,0" class="cell_$or$/code/libsv/latches/sr_latch.sv:8$1"/>
    <path d="M0,0 A30 25 0 0 1 0,25" class="cell_$or$/code/libsv/latches/sr_latch.sv:8$1"/>
    <g s:x="3" s:y="5" s:pid="A"/>
    <g s:x="3" s:y="20" s:pid="B"/>
    <g s:x="30" s:y="12.5" s:pid="Y"/>
  </g>
  <g s:type="or" transform="translate(227,109.5)" s:width="30" s:height="25" id="cell_$or$/code/libsv/latches/sr_latch.sv:9$3">
    <s:alias val="$or"/>
    <s:alias val="$logic_or"/>
    <s:alias val="$_OR_"/>
    <path d="M0,25 L0,25 L15,25 A15 12.5 0 0 0 15,0 L0,0" class="cell_$or$/code/libsv/latches/sr_latch.sv:9$3"/>
    <path d="M0,0 A30 25 0 0 1 0,25" class="cell_$or$/code/libsv/latches/sr_latch.sv:9$3"/>
    <g s:x="3" s:y="5" s:pid="A"/>
    <g s:x="3" s:y="20" s:pid="B"/>
    <g s:x="30" s:y="12.5" s:pid="Y"/>
  </g>
  <g s:type="inputExt" transform="translate(162,104.5)" s:width="30" s:height="20" id="cell_s">
    <text x="15" y="-4" class="nodelabel cell_s" s:attribute="ref">s</text>
    <s:alias val="$_inputExt_"/>
    <path d="M0,0 L0,20 L15,20 L30,10 L15,0 Z" class="cell_s"/>
    <g s:x="28" s:y="10" s:pid="Y"/>
  </g>
  <g s:type="inputExt" transform="translate(32,32)" s:width="30" s:height="20" id="cell_r">
    <text x="15" y="-4" class="nodelabel cell_r" s:attribute="ref">r</text>
    <s:alias val="$_inputExt_"/>
    <path d="M0,0 L0,20 L15,20 L30,10 L15,0 Z" class="cell_r"/>
    <g s:x="28" s:y="10" s:pid="Y"/>
  </g>
  <g s:type="outputExt" transform="translate(227,39.5)" s:width="30" s:height="20" id="cell_q">
    <text x="15" y="-4" class="nodelabel cell_q" s:attribute="ref">q</text>
    <s:alias val="$_outputExt_"/>
    <path d="M30,0 L30,20 L15,20 L0,10 L15,0 Z" class="cell_q"/>
    <g s:x="0" s:y="10" s:pid="A"/>
  </g>
  <g s:type="outputExt" transform="translate(227,179.5)" s:width="30" s:height="20" id="cell_q_n">
    <text x="15" y="-4" class="nodelabel cell_q_n" s:attribute="ref">q_n</text>
    <s:alias val="$_outputExt_"/>
    <path d="M30,0 L30,20 L15,20 L0,10 L15,0 Z" class="cell_q_n"/>
    <g s:x="0" s:y="10" s:pid="A"/>
  </g>
  <line x1="127" x2="162" y1="49.5" y2="49.5" class="net_6"/>
  <line x1="257" x2="267" y1="122" y2="122" class="net_7"/>
  <line x1="267" x2="267" y1="122" y2="12" class="net_7"/>
  <line x1="267" x2="12" y1="12" y2="12" class="net_7"/>
  <line x1="12" x2="12" y1="12" y2="189.5" class="net_7"/>
  <line x1="12" x2="32" y1="189.5" y2="189.5" class="net_7"/>
  <line x1="60" x2="100" y1="42" y2="42" class="net_3"/>
  <line x1="57" x2="72" y1="189.5" y2="189.5" class="net_5"/>
  <line x1="72" x2="72" y1="189.5" y2="57" class="net_5"/>
  <circle cx="72" cy="189.5" r="2" style="fill:#000" class="net_5"/>
  <line x1="72" x2="100" y1="57" y2="57" class="net_5"/>
  <line x1="57" x2="227" y1="189.5" y2="189.5" class="net_5"/>
  <line x1="190" x2="230" y1="114.5" y2="114.5" class="net_2"/>
  <line x1="187" x2="202" y1="49.5" y2="49.5" class="net_4"/>
  <line x1="202" x2="202" y1="49.5" y2="129.5" class="net_4"/>
  <circle cx="202" cy="49.5" r="2" style="fill:#000" class="net_4"/>
  <line x1="202" x2="230" y1="129.5" y2="129.5" class="net_4"/>
  <line x1="187" x2="227" y1="49.5" y2="49.5" class="net_4"/>
</svg>
