<svg xmlns="http://www.w3.org/2000/svg" xmlns:xlink="http://www.w3.org/1999/xlink" xmlns:s="https://github.com/nturley/netlistsvg" width="1345" height="695">
  <style>svg {
    stroke:#000;
    fill:none;
  }
  text {
    fill:#000;
    stroke:none;
    font-size:10px;
    font-weight: bold;
    font-family: "Courier New", monospace;
  }
  .nodelabel {
    text-anchor: middle;
  }
  .inputPortLabel {
    text-anchor: end;
  }
  .splitjoinBody {
    fill:#000;
  }</style>
  <g s:type="add" transform="translate(247,415)" s:width="25" s:height="25" id="cell_$add$/code/libsv/coders/bcd_encoder.sv:15$15">
    <s:alias val="$add"/>
    <circle r="12.5" cx="12.5" cy="12.5" class="cell_$add$/code/libsv/coders/bcd_encoder.sv:15$15"/>
    <line x1="7.5" x2="17.5" y1="12.5" y2="12.5" class="cell_$add$/code/libsv/coders/bcd_encoder.sv:15$15"/>
    <line x1="12.5" x2="12.5" y1="7.5" y2="17.5" class="cell_$add$/code/libsv/coders/bcd_encoder.sv:15$15"/>
    <g s:x="3" s:y="5" s:pid="A"/>
    <g s:x="3" s:y="20" s:pid="B"/>
    <g s:x="25" s:y="12.5" s:pid="Y"/>
  </g>
  <g s:type="add" transform="translate(474,318)" s:width="25" s:height="25" id="cell_$add$/code/libsv/coders/bcd_encoder.sv:15$17">
    <s:alias val="$add"/>
    <circle r="12.5" cx="12.5" cy="12.5" class="cell_$add$/code/libsv/coders/bcd_encoder.sv:15$17"/>
    <line x1="7.5" x2="17.5" y1="12.5" y2="12.5" class="cell_$add$/code/libsv/coders/bcd_encoder.sv:15$17"/>
    <line x1="12.5" x2="12.5" y1="7.5" y2="17.5" class="cell_$add$/code/libsv/coders/bcd_encoder.sv:15$17"/>
    <g s:x="3" s:y="5" s:pid="A"/>
    <g s:x="3" s:y="20" s:pid="B"/>
    <g s:x="25" s:y="12.5" s:pid="Y"/>
  </g>
  <g s:type="add" transform="translate(696,203.5)" s:width="25" s:height="25" id="cell_$add$/code/libsv/coders/bcd_encoder.sv:15$19">
    <s:alias val="$add"/>
    <circle r="12.5" cx="12.5" cy="12.5" class="cell_$add$/code/libsv/coders/bcd_encoder.sv:15$19"/>
    <line x1="7.5" x2="17.5" y1="12.5" y2="12.5" class="cell_$add$/code/libsv/coders/bcd_encoder.sv:15$19"/>
    <line x1="12.5" x2="12.5" y1="7.5" y2="17.5" class="cell_$add$/code/libsv/coders/bcd_encoder.sv:15$19"/>
    <g s:x="3" s:y="5" s:pid="A"/>
    <g s:x="3" s:y="20" s:pid="B"/>
    <g s:x="25" s:y="12.5" s:pid="Y"/>
  </g>
  <g s:type="add" transform="translate(918,123.5)" s:width="25" s:height="25" id="cell_$add$/code/libsv/coders/bcd_encoder.sv:15$21">
    <s:alias val="$add"/>
    <circle r="12.5" cx="12.5" cy="12.5" class="cell_$add$/code/libsv/coders/bcd_encoder.sv:15$21"/>
    <line x1="7.5" x2="17.5" y1="12.5" y2="12.5" class="cell_$add$/code/libsv/coders/bcd_encoder.sv:15$21"/>
    <line x1="12.5" x2="12.5" y1="7.5" y2="17.5" class="cell_$add$/code/libsv/coders/bcd_encoder.sv:15$21"/>
    <g s:x="3" s:y="5" s:pid="A"/>
    <g s:x="3" s:y="20" s:pid="B"/>
    <g s:x="25" s:y="12.5" s:pid="Y"/>
  </g>
  <g s:type="add" transform="translate(918,555.5)" s:width="25" s:height="25" id="cell_$add$/code/libsv/coders/bcd_encoder.sv:15$23">
    <s:alias val="$add"/>
    <circle r="12.5" cx="12.5" cy="12.5" class="cell_$add$/code/libsv/coders/bcd_encoder.sv:15$23"/>
    <line x1="7.5" x2="17.5" y1="12.5" y2="12.5" class="cell_$add$/code/libsv/coders/bcd_encoder.sv:15$23"/>
    <line x1="12.5" x2="12.5" y1="7.5" y2="17.5" class="cell_$add$/code/libsv/coders/bcd_encoder.sv:15$23"/>
    <g s:x="3" s:y="5" s:pid="A"/>
    <g s:x="3" s:y="20" s:pid="B"/>
    <g s:x="25" s:y="12.5" s:pid="Y"/>
  </g>
  <g s:type="add" transform="translate(1140,54.5)" s:width="25" s:height="25" id="cell_$add$/code/libsv/coders/bcd_encoder.sv:15$25">
    <s:alias val="$add"/>
    <circle r="12.5" cx="12.5" cy="12.5" class="cell_$add$/code/libsv/coders/bcd_encoder.sv:15$25"/>
    <line x1="7.5" x2="17.5" y1="12.5" y2="12.5" class="cell_$add$/code/libsv/coders/bcd_encoder.sv:15$25"/>
    <line x1="12.5" x2="12.5" y1="7.5" y2="17.5" class="cell_$add$/code/libsv/coders/bcd_encoder.sv:15$25"/>
    <g s:x="3" s:y="5" s:pid="A"/>
    <g s:x="3" s:y="20" s:pid="B"/>
    <g s:x="25" s:y="12.5" s:pid="Y"/>
  </g>
  <g s:type="add" transform="translate(1140,197.5)" s:width="25" s:height="25" id="cell_$add$/code/libsv/coders/bcd_encoder.sv:15$27">
    <s:alias val="$add"/>
    <circle r="12.5" cx="12.5" cy="12.5" class="cell_$add$/code/libsv/coders/bcd_encoder.sv:15$27"/>
    <line x1="7.5" x2="17.5" y1="12.5" y2="12.5" class="cell_$add$/code/libsv/coders/bcd_encoder.sv:15$27"/>
    <line x1="12.5" x2="12.5" y1="7.5" y2="17.5" class="cell_$add$/code/libsv/coders/bcd_encoder.sv:15$27"/>
    <g s:x="3" s:y="5" s:pid="A"/>
    <g s:x="3" s:y="20" s:pid="B"/>
    <g s:x="25" s:y="12.5" s:pid="Y"/>
  </g>
  <g s:type="gt" transform="translate(247,475)" s:width="25" s:height="25" id="cell_$gt$/code/libsv/coders/bcd_encoder.sv:14$14">
    <s:alias val="$gt"/>
    <circle r="12.5" cx="12.5" cy="12.5" class="cell_$gt$/code/libsv/coders/bcd_encoder.sv:14$14"/>
    <line x1="7.5" x2="17.5" y1="7.5" y2="12.5" class="cell_$gt$/code/libsv/coders/bcd_encoder.sv:14$14"/>
    <line x1="7.5" x2="17.5" y1="17.5" y2="12.5" class="cell_$gt$/code/libsv/coders/bcd_encoder.sv:14$14"/>
    <g s:x="3" s:y="5" s:pid="A"/>
    <g s:x="3" s:y="20" s:pid="B"/>
    <g s:x="25" s:y="12.5" s:pid="Y"/>
  </g>
  <g s:type="gt" transform="translate(474,374.5)" s:width="25" s:height="25" id="cell_$gt$/code/libsv/coders/bcd_encoder.sv:14$16">
    <s:alias val="$gt"/>
    <circle r="12.5" cx="12.5" cy="12.5" class="cell_$gt$/code/libsv/coders/bcd_encoder.sv:14$16"/>
    <line x1="7.5" x2="17.5" y1="7.5" y2="12.5" class="cell_$gt$/code/libsv/coders/bcd_encoder.sv:14$16"/>
    <line x1="7.5" x2="17.5" y1="17.5" y2="12.5" class="cell_$gt$/code/libsv/coders/bcd_encoder.sv:14$16"/>
    <g s:x="3" s:y="5" s:pid="A"/>
    <g s:x="3" s:y="20" s:pid="B"/>
    <g s:x="25" s:y="12.5" s:pid="Y"/>
  </g>
  <g s:type="gt" transform="translate(696,263.5)" s:width="25" s:height="25" id="cell_$gt$/code/libsv/coders/bcd_encoder.sv:14$18">
    <s:alias val="$gt"/>
    <circle r="12.5" cx="12.5" cy="12.5" class="cell_$gt$/code/libsv/coders/bcd_encoder.sv:14$18"/>
    <line x1="7.5" x2="17.5" y1="7.5" y2="12.5" class="cell_$gt$/code/libsv/coders/bcd_encoder.sv:14$18"/>
    <line x1="7.5" x2="17.5" y1="17.5" y2="12.5" class="cell_$gt$/code/libsv/coders/bcd_encoder.sv:14$18"/>
    <g s:x="3" s:y="5" s:pid="A"/>
    <g s:x="3" s:y="20" s:pid="B"/>
    <g s:x="25" s:y="12.5" s:pid="Y"/>
  </g>
  <g s:type="gt" transform="translate(918,180)" s:width="25" s:height="25" id="cell_$gt$/code/libsv/coders/bcd_encoder.sv:14$20">
    <s:alias val="$gt"/>
    <circle r="12.5" cx="12.5" cy="12.5" class="cell_$gt$/code/libsv/coders/bcd_encoder.sv:14$20"/>
    <line x1="7.5" x2="17.5" y1="7.5" y2="12.5" class="cell_$gt$/code/libsv/coders/bcd_encoder.sv:14$20"/>
    <line x1="7.5" x2="17.5" y1="17.5" y2="12.5" class="cell_$gt$/code/libsv/coders/bcd_encoder.sv:14$20"/>
    <g s:x="3" s:y="5" s:pid="A"/>
    <g s:x="3" s:y="20" s:pid="B"/>
    <g s:x="25" s:y="12.5" s:pid="Y"/>
  </g>
  <g s:type="gt" transform="translate(918,632)" s:width="25" s:height="25" id="cell_$gt$/code/libsv/coders/bcd_encoder.sv:14$22">
    <s:alias val="$gt"/>
    <circle r="12.5" cx="12.5" cy="12.5" class="cell_$gt$/code/libsv/coders/bcd_encoder.sv:14$22"/>
    <line x1="7.5" x2="17.5" y1="7.5" y2="12.5" class="cell_$gt$/code/libsv/coders/bcd_encoder.sv:14$22"/>
    <line x1="7.5" x2="17.5" y1="17.5" y2="12.5" class="cell_$gt$/code/libsv/coders/bcd_encoder.sv:14$22"/>
    <g s:x="3" s:y="5" s:pid="A"/>
    <g s:x="3" s:y="20" s:pid="B"/>
    <g s:x="25" s:y="12.5" s:pid="Y"/>
  </g>
  <g s:type="gt" transform="translate(1140,149)" s:width="25" s:height="25" id="cell_$gt$/code/libsv/coders/bcd_encoder.sv:14$24">
    <s:alias val="$gt"/>
    <circle r="12.5" cx="12.5" cy="12.5" class="cell_$gt$/code/libsv/coders/bcd_encoder.sv:14$24"/>
    <line x1="7.5" x2="17.5" y1="7.5" y2="12.5" class="cell_$gt$/code/libsv/coders/bcd_encoder.sv:14$24"/>
    <line x1="7.5" x2="17.5" y1="17.5" y2="12.5" class="cell_$gt$/code/libsv/coders/bcd_encoder.sv:14$24"/>
    <g s:x="3" s:y="5" s:pid="A"/>
    <g s:x="3" s:y="20" s:pid="B"/>
    <g s:x="25" s:y="12.5" s:pid="Y"/>
  </g>
  <g s:type="gt" transform="translate(1140,647)" s:width="25" s:height="25" id="cell_$gt$/code/libsv/coders/bcd_encoder.sv:14$26">
    <s:alias val="$gt"/>
    <circle r="12.5" cx="12.5" cy="12.5" class="cell_$gt$/code/libsv/coders/bcd_encoder.sv:14$26"/>
    <line x1="7.5" x2="17.5" y1="7.5" y2="12.5" class="cell_$gt$/code/libsv/coders/bcd_encoder.sv:14$26"/>
    <line x1="7.5" x2="17.5" y1="17.5" y2="12.5" class="cell_$gt$/code/libsv/coders/bcd_encoder.sv:14$26"/>
    <g s:x="3" s:y="5" s:pid="A"/>
    <g s:x="3" s:y="20" s:pid="B"/>
    <g s:x="25" s:y="12.5" s:pid="Y"/>
  </g>
  <g s:type="mux" transform="translate(1200,174)" s:width="20" s:height="40" id="cell_$procmux$29">
    <s:alias val="$pmux"/>
    <s:alias val="$mux"/>
    <s:alias val="$_MUX_"/>
    <path d="M0,0 L20,10 L20,30 L0,40 Z" class="cell_$procmux$29"/>
    <g s:x="0" s:y="10" s:pid="A"/>
    <g s:x="0" s:y="30" s:pid="B"/>
    <g s:x="10" s:y="35" s:pid="S"/>
    <g s:x="20" s:y="20" s:pid="Y"/>
  </g>
  <g s:type="mux" transform="translate(1200,33.5)" s:width="20" s:height="40" id="cell_$procmux$32">
    <s:alias val="$pmux"/>
    <s:alias val="$mux"/>
    <s:alias val="$_MUX_"/>
    <path d="M0,0 L20,10 L20,30 L0,40 Z" class="cell_$procmux$32"/>
    <g s:x="0" s:y="10" s:pid="A"/>
    <g s:x="0" s:y="30" s:pid="B"/>
    <g s:x="10" s:y="35" s:pid="S"/>
    <g s:x="20" s:y="20" s:pid="Y"/>
  </g>
  <g s:type="mux" transform="translate(978,534.5)" s:width="20" s:height="40" id="cell_$procmux$35">
    <s:alias val="$pmux"/>
    <s:alias val="$mux"/>
    <s:alias val="$_MUX_"/>
    <path d="M0,0 L20,10 L20,30 L0,40 Z" class="cell_$procmux$35"/>
    <g s:x="0" s:y="10" s:pid="A"/>
    <g s:x="0" s:y="30" s:pid="B"/>
    <g s:x="10" s:y="35" s:pid="S"/>
    <g s:x="20" s:y="20" s:pid="Y"/>
  </g>
  <g s:type="mux" transform="translate(978,102.5)" s:width="20" s:height="40" id="cell_$procmux$38">
    <s:alias val="$pmux"/>
    <s:alias val="$mux"/>
    <s:alias val="$_MUX_"/>
    <path d="M0,0 L20,10 L20,30 L0,40 Z" class="cell_$procmux$38"/>
    <g s:x="0" s:y="10" s:pid="A"/>
    <g s:x="0" s:y="30" s:pid="B"/>
    <g s:x="10" s:y="35" s:pid="S"/>
    <g s:x="20" s:y="20" s:pid="Y"/>
  </g>
  <g s:type="mux" transform="translate(756,182.5)" s:width="20" s:height="40" id="cell_$procmux$41">
    <s:alias val="$pmux"/>
    <s:alias val="$mux"/>
    <s:alias val="$_MUX_"/>
    <path d="M0,0 L20,10 L20,30 L0,40 Z" class="cell_$procmux$41"/>
    <g s:x="0" s:y="10" s:pid="A"/>
    <g s:x="0" s:y="30" s:pid="B"/>
    <g s:x="10" s:y="35" s:pid="S"/>
    <g s:x="20" s:y="20" s:pid="Y"/>
  </g>
  <g s:type="mux" transform="translate(534,297)" s:width="20" s:height="40" id="cell_$procmux$44">
    <s:alias val="$pmux"/>
    <s:alias val="$mux"/>
    <s:alias val="$_MUX_"/>
    <path d="M0,0 L20,10 L20,30 L0,40 Z" class="cell_$procmux$44"/>
    <g s:x="0" s:y="10" s:pid="A"/>
    <g s:x="0" s:y="30" s:pid="B"/>
    <g s:x="10" s:y="35" s:pid="S"/>
    <g s:x="20" s:y="20" s:pid="Y"/>
  </g>
  <g s:type="mux" transform="translate(307,377)" s:width="20" s:height="40" id="cell_$procmux$47">
    <s:alias val="$pmux"/>
    <s:alias val="$mux"/>
    <s:alias val="$_MUX_"/>
    <path d="M0,0 L20,10 L20,30 L0,40 Z" class="cell_$procmux$47"/>
    <g s:x="0" s:y="10" s:pid="A"/>
    <g s:x="0" s:y="30" s:pid="B"/>
    <g s:x="10" s:y="35" s:pid="S"/>
    <g s:x="20" s:y="20" s:pid="Y"/>
  </g>
  <g s:type="inputExt" transform="translate(12,432.5)" s:width="30" s:height="20" id="cell_i_bin">
    <text x="15" y="-4" class="nodelabel cell_i_bin" s:attribute="ref">i_bin</text>
    <s:alias val="$_inputExt_"/>
    <path d="M0,0 L0,20 L15,20 L30,10 L15,0 Z" class="cell_i_bin"/>
    <g s:x="28" s:y="10" s:pid="Y"/>
  </g>
  <g s:type="outputExt" transform="translate(1303,22.5)" s:width="30" s:height="20" id="cell_o_bcd">
    <text x="15" y="-4" class="nodelabel cell_o_bcd" s:attribute="ref">o_bcd</text>
    <s:alias val="$_outputExt_"/>
    <path d="M30,0 L30,20 L15,20 L0,10 L15,0 Z" class="cell_o_bcd"/>
    <g s:x="0" s:y="10" s:pid="A"/>
  </g>
  <g s:type="constant" transform="translate(77,631)" s:width="30" s:height="20" id="cell_0">
    <text x="15" y="-4" class="nodelabel cell_0" s:attribute="ref">0</text>
    <s:alias val="$_constant_"/>
    <rect width="30" height="20" class="cell_0"/>
    <g s:x="30" s:y="10" s:pid="Y"/>
  </g>
  <g s:type="constant" transform="translate(177,342.5)" s:width="30" s:height="20" id="cell_0011">
    <text x="15" y="-4" class="nodelabel cell_0011" s:attribute="ref">0x3</text>
    <s:alias val="$_constant_"/>
    <rect width="30" height="20" class="cell_0011"/>
    <g s:x="30" s:y="10" s:pid="Y"/>
  </g>
  <g s:type="constant" transform="translate(177,485)" s:width="30" s:height="20" id="cell_00000000000000000000000000000100">
    <text x="15" y="-4" class="nodelabel cell_00000000000000000000000000000100" s:attribute="ref">0x4</text>
    <s:alias val="$_constant_"/>
    <rect width="30" height="20" class="cell_00000000000000000000000000000100"/>
    <g s:x="30" s:y="10" s:pid="Y"/>
  </g>
  <g s:type="join" transform="translate(196,399.5)" s:width="4" s:height="40" id="cell_$join$,7,8,9,73,">
    <rect width="5" height="40" class="splitjoinBody" s:generic="body"/>
    <s:alias val="$_join_"/>
    <g s:x="5" s:y="20" s:pid="out"/>
    <g transform="translate(0,10)" s:x="0" s:y="10" s:pid="in0">
      <text x="-3" y="-4" class="inputPortLabel">0:2</text>
    </g>
    <g transform="translate(0,30)" s:x="0" s:y="10" s:pid="in0">
      <text x="-3" y="-4" class="inputPortLabel">3</text>
    </g>
  </g>
  <g s:type="join" transform="translate(433,302.5)" s:width="4" s:height="40" id="cell_$join$,6,23,24,25,">
    <rect width="5" height="40" class="splitjoinBody" s:generic="body"/>
    <s:alias val="$_join_"/>
    <g s:x="5" s:y="20" s:pid="out"/>
    <g transform="translate(0,10)" s:x="0" s:y="10" s:pid="in0">
      <text x="-3" y="-4" class="inputPortLabel">0</text>
    </g>
    <g transform="translate(0,30)" s:x="0" s:y="10" s:pid="in0">
      <text x="-3" y="-4" class="inputPortLabel">1:3</text>
    </g>
  </g>
  <g s:type="join" transform="translate(655,188)" s:width="4" s:height="40" id="cell_$join$,5,30,31,32,">
    <rect width="5" height="40" class="splitjoinBody" s:generic="body"/>
    <s:alias val="$_join_"/>
    <g s:x="5" s:y="20" s:pid="out"/>
    <g transform="translate(0,10)" s:x="0" s:y="10" s:pid="in0">
      <text x="-3" y="-4" class="inputPortLabel">0</text>
    </g>
    <g transform="translate(0,30)" s:x="0" s:y="10" s:pid="in0">
      <text x="-3" y="-4" class="inputPortLabel">1:3</text>
    </g>
  </g>
  <g s:type="join" transform="translate(877,108)" s:width="4" s:height="40" id="cell_$join$,4,37,38,39,">
    <rect width="5" height="40" class="splitjoinBody" s:generic="body"/>
    <s:alias val="$_join_"/>
    <g s:x="5" s:y="20" s:pid="out"/>
    <g transform="translate(0,10)" s:x="0" s:y="10" s:pid="in0">
      <text x="-3" y="-4" class="inputPortLabel">0</text>
    </g>
    <g transform="translate(0,30)" s:x="0" s:y="10" s:pid="in0">
      <text x="-3" y="-4" class="inputPortLabel">1:3</text>
    </g>
  </g>
  <g s:type="join" transform="translate(877,540)" s:width="4" s:height="40" id="cell_$join$,44,45,46,73,">
    <rect width="5" height="80" class="splitjoinBody" s:generic="body"/>
    <s:alias val="$_join_"/>
    <g s:x="5" s:y="20" s:pid="out"/>
    <g transform="translate(0,10)" s:x="0" s:y="10" s:pid="in0">
      <text x="-3" y="-4" class="inputPortLabel">0</text>
    </g>
    <g transform="translate(0,30)" s:x="0" s:y="10" s:pid="in0">
      <text x="-3" y="-4" class="inputPortLabel">1</text>
    </g>
    <g transform="translate(0,50)" s:x="0" s:y="10" s:pid="in0">
      <text x="-3" y="-4" class="inputPortLabel">2</text>
    </g>
    <g transform="translate(0,70)" s:x="0" s:y="10" s:pid="in0">
      <text x="-3" y="-4" class="inputPortLabel">3</text>
    </g>
  </g>
  <g s:type="join" transform="translate(1099,39)" s:width="4" s:height="40" id="cell_$join$,3,51,52,53,">
    <rect width="5" height="40" class="splitjoinBody" s:generic="body"/>
    <s:alias val="$_join_"/>
    <g s:x="5" s:y="20" s:pid="out"/>
    <g transform="translate(0,10)" s:x="0" s:y="10" s:pid="in0">
      <text x="-3" y="-4" class="inputPortLabel">0</text>
    </g>
    <g transform="translate(0,30)" s:x="0" s:y="10" s:pid="in0">
      <text x="-3" y="-4" class="inputPortLabel">1:3</text>
    </g>
  </g>
  <g s:type="join" transform="translate(1099,182)" s:width="4" s:height="40" id="cell_$join$,58,59,60,61,">
    <rect width="5" height="40" class="splitjoinBody" s:generic="body"/>
    <s:alias val="$_join_"/>
    <g s:x="5" s:y="20" s:pid="out"/>
    <g transform="translate(0,10)" s:x="0" s:y="10" s:pid="in0">
      <text x="-3" y="-4" class="inputPortLabel">0</text>
    </g>
    <g transform="translate(0,30)" s:x="0" s:y="10" s:pid="in0">
      <text x="-3" y="-4" class="inputPortLabel">1:3</text>
    </g>
  </g>
  <g s:type="join" transform="translate(1262,12)" s:width="4" s:height="40" id="cell_$join$,2,10,11,12,13,14,15,16,17,18,">
    <rect width="5" height="80" class="splitjoinBody" s:generic="body"/>
    <s:alias val="$_join_"/>
    <g s:x="5" s:y="20" s:pid="out"/>
    <g transform="translate(0,10)" s:x="0" s:y="10" s:pid="in0">
      <text x="-3" y="-4" class="inputPortLabel">0</text>
    </g>
    <g transform="translate(0,30)" s:x="0" s:y="10" s:pid="in0">
      <text x="-3" y="-4" class="inputPortLabel">1:4</text>
    </g>
    <g transform="translate(0,50)" s:x="0" s:y="10" s:pid="in0">
      <text x="-3" y="-4" class="inputPortLabel">5:8</text>
    </g>
    <g transform="translate(0,70)" s:x="0" s:y="10" s:pid="in0">
      <text x="-3" y="-4" class="inputPortLabel">9</text>
    </g>
  </g>
  <g s:type="split" transform="translate(83,422)" s:width="5" s:height="40" id="cell_$split$,2,3,4,5,6,7,8,9,">
    <rect width="5" height="120" class="splitjoinBody" s:generic="body"/>
    <s:alias val="$_split_"/>
    <g s:x="0" s:y="20" s:pid="in"/>
    <g transform="translate(4,10)" s:x="4" s:y="10" s:pid="out0">
      <text x="5" y="-4">5:7</text>
    </g>
    <g transform="translate(4,30)" s:x="4" s:y="10" s:pid="out0">
      <text x="5" y="-4">4</text>
    </g>
    <g transform="translate(4,50)" s:x="4" s:y="10" s:pid="out0">
      <text x="5" y="-4">3</text>
    </g>
    <g transform="translate(4,70)" s:x="4" s:y="10" s:pid="out0">
      <text x="5" y="-4">2</text>
    </g>
    <g transform="translate(4,90)" s:x="4" s:y="10" s:pid="out0">
      <text x="5" y="-4">1</text>
    </g>
    <g transform="translate(4,110)" s:x="4" s:y="10" s:pid="out0">
      <text x="5" y="-4">0</text>
    </g>
  </g>
  <g s:type="split" transform="translate(362,376.5)" s:width="5" s:height="40" id="cell_$split$,23,24,25,46,">
    <rect width="5" height="40" class="splitjoinBody" s:generic="body"/>
    <s:alias val="$_split_"/>
    <g s:x="0" s:y="20" s:pid="in"/>
    <g transform="translate(4,10)" s:x="4" s:y="10" s:pid="out0">
      <text x="5" y="-4">0:2</text>
    </g>
    <g transform="translate(4,30)" s:x="4" s:y="10" s:pid="out0">
      <text x="5" y="-4">3</text>
    </g>
  </g>
  <g s:type="split" transform="translate(589,296.5)" s:width="5" s:height="40" id="cell_$split$,30,31,32,45,">
    <rect width="5" height="40" class="splitjoinBody" s:generic="body"/>
    <s:alias val="$_split_"/>
    <g s:x="0" s:y="20" s:pid="in"/>
    <g transform="translate(4,10)" s:x="4" s:y="10" s:pid="out0">
      <text x="5" y="-4">0:2</text>
    </g>
    <g transform="translate(4,30)" s:x="4" s:y="10" s:pid="out0">
      <text x="5" y="-4">3</text>
    </g>
  </g>
  <g s:type="split" transform="translate(811,182)" s:width="5" s:height="40" id="cell_$split$,37,38,39,44,">
    <rect width="5" height="40" class="splitjoinBody" s:generic="body"/>
    <s:alias val="$_split_"/>
    <g s:x="0" s:y="20" s:pid="in"/>
    <g transform="translate(4,10)" s:x="4" s:y="10" s:pid="out0">
      <text x="5" y="-4">0:2</text>
    </g>
    <g transform="translate(4,30)" s:x="4" s:y="10" s:pid="out0">
      <text x="5" y="-4">3</text>
    </g>
  </g>
  <g s:type="split" transform="translate(1033,102)" s:width="5" s:height="40" id="cell_$split$,51,52,53,58,">
    <rect width="5" height="40" class="splitjoinBody" s:generic="body"/>
    <s:alias val="$_split_"/>
    <g s:x="0" s:y="20" s:pid="in"/>
    <g transform="translate(4,10)" s:x="4" s:y="10" s:pid="out0">
      <text x="5" y="-4">0:2</text>
    </g>
    <g transform="translate(4,30)" s:x="4" s:y="10" s:pid="out0">
      <text x="5" y="-4">3</text>
    </g>
  </g>
  <g s:type="split" transform="translate(1033,534)" s:width="5" s:height="40" id="cell_$split$,59,60,61,18,">
    <rect width="5" height="40" class="splitjoinBody" s:generic="body"/>
    <s:alias val="$_split_"/>
    <g s:x="0" s:y="20" s:pid="in"/>
    <g transform="translate(4,10)" s:x="4" s:y="10" s:pid="out0">
      <text x="5" y="-4">0:2</text>
    </g>
    <g transform="translate(4,30)" s:x="4" s:y="10" s:pid="out0">
      <text x="5" y="-4">3</text>
    </g>
  </g>
  <line x1="202" x2="250" y1="420" y2="420" class="net_7,8,9,73"/>
  <line x1="202" x2="237" y1="420" y2="420" class="net_7,8,9,73"/>
  <line x1="237" x2="237" y1="420" y2="480" class="net_7,8,9,73"/>
  <circle cx="237" cy="420" r="2" style="fill:#000" class="net_7,8,9,73"/>
  <line x1="237" x2="250" y1="480" y2="480" class="net_7,8,9,73"/>
  <line x1="202" x2="237" y1="420" y2="420" class="net_7,8,9,73"/>
  <line x1="237" x2="237" y1="420" y2="387" class="net_7,8,9,73"/>
  <line x1="237" x2="307" y1="387" y2="387" class="net_7,8,9,73"/>
  <line x1="207" x2="217" y1="352.5" y2="352.5" class="net_74,75,76,77"/>
  <line x1="217" x2="217" y1="352.5" y2="435" class="net_74,75,76,77"/>
  <circle cx="217" cy="352.5" r="2" style="fill:#000" class="net_74,75,76,77"/>
  <circle cx="217" cy="435" r="2" style="fill:#000" class="net_74,75,76,77"/>
  <line x1="217" x2="250" y1="435" y2="435" class="net_74,75,76,77"/>
  <line x1="207" x2="449" y1="352.5" y2="352.5" class="net_74,75,76,77"/>
  <line x1="449" x2="449" y1="352.5" y2="338" class="net_74,75,76,77"/>
  <line x1="449" x2="477" y1="338" y2="338" class="net_74,75,76,77"/>
  <line x1="207" x2="217" y1="352.5" y2="352.5" class="net_74,75,76,77"/>
  <line x1="217" x2="217" y1="352.5" y2="238" class="net_74,75,76,77"/>
  <line x1="217" x2="671" y1="238" y2="238" class="net_74,75,76,77"/>
  <line x1="671" x2="671" y1="238" y2="223.5" class="net_74,75,76,77"/>
  <circle cx="217" cy="238" r="2" style="fill:#000" class="net_74,75,76,77"/>
  <line x1="671" x2="699" y1="223.5" y2="223.5" class="net_74,75,76,77"/>
  <line x1="207" x2="217" y1="352.5" y2="352.5" class="net_74,75,76,77"/>
  <line x1="217" x2="217" y1="352.5" y2="158" class="net_74,75,76,77"/>
  <line x1="217" x2="893" y1="158" y2="158" class="net_74,75,76,77"/>
  <line x1="893" x2="893" y1="158" y2="143.5" class="net_74,75,76,77"/>
  <circle cx="217" cy="158" r="2" style="fill:#000" class="net_74,75,76,77"/>
  <line x1="893" x2="921" y1="143.5" y2="143.5" class="net_74,75,76,77"/>
  <line x1="207" x2="217" y1="352.5" y2="352.5" class="net_74,75,76,77"/>
  <line x1="217" x2="217" y1="352.5" y2="521" class="net_74,75,76,77"/>
  <line x1="217" x2="396" y1="521" y2="521" class="net_74,75,76,77"/>
  <line x1="396" x2="396" y1="521" y2="630" class="net_74,75,76,77"/>
  <line x1="396" x2="893" y1="630" y2="630" class="net_74,75,76,77"/>
  <line x1="893" x2="893" y1="630" y2="575.5" class="net_74,75,76,77"/>
  <circle cx="396" cy="521" r="2" style="fill:#000" class="net_74,75,76,77"/>
  <line x1="893" x2="921" y1="575.5" y2="575.5" class="net_74,75,76,77"/>
  <line x1="207" x2="217" y1="352.5" y2="352.5" class="net_74,75,76,77"/>
  <line x1="217" x2="217" y1="352.5" y2="89" class="net_74,75,76,77"/>
  <line x1="217" x2="1115" y1="89" y2="89" class="net_74,75,76,77"/>
  <line x1="1115" x2="1115" y1="89" y2="74.5" class="net_74,75,76,77"/>
  <line x1="1115" x2="1143" y1="74.5" y2="74.5" class="net_74,75,76,77"/>
  <line x1="207" x2="217" y1="352.5" y2="352.5" class="net_74,75,76,77"/>
  <line x1="217" x2="217" y1="352.5" y2="521" class="net_74,75,76,77"/>
  <line x1="217" x2="1115" y1="521" y2="521" class="net_74,75,76,77"/>
  <line x1="1115" x2="1115" y1="521" y2="217.5" class="net_74,75,76,77"/>
  <line x1="1115" x2="1143" y1="217.5" y2="217.5" class="net_74,75,76,77"/>
  <line x1="439" x2="477" y1="323" y2="323" class="net_6,23,24,25"/>
  <line x1="439" x2="459" y1="323" y2="323" class="net_6,23,24,25"/>
  <line x1="459" x2="459" y1="323" y2="379.5" class="net_6,23,24,25"/>
  <circle cx="459" cy="323" r="2" style="fill:#000" class="net_6,23,24,25"/>
  <line x1="459" x2="477" y1="379.5" y2="379.5" class="net_6,23,24,25"/>
  <line x1="439" x2="459" y1="323" y2="323" class="net_6,23,24,25"/>
  <line x1="459" x2="459" y1="323" y2="307" class="net_6,23,24,25"/>
  <line x1="459" x2="534" y1="307" y2="307" class="net_6,23,24,25"/>
  <line x1="661" x2="699" y1="208.5" y2="208.5" class="net_5,30,31,32"/>
  <line x1="661" x2="681" y1="208.5" y2="208.5" class="net_5,30,31,32"/>
  <line x1="681" x2="681" y1="208.5" y2="268.5" class="net_5,30,31,32"/>
  <circle cx="681" cy="208.5" r="2" style="fill:#000" class="net_5,30,31,32"/>
  <line x1="681" x2="699" y1="268.5" y2="268.5" class="net_5,30,31,32"/>
  <line x1="661" x2="681" y1="208.5" y2="208.5" class="net_5,30,31,32"/>
  <line x1="681" x2="681" y1="208.5" y2="192.5" class="net_5,30,31,32"/>
  <line x1="681" x2="756" y1="192.5" y2="192.5" class="net_5,30,31,32"/>
  <line x1="883" x2="921" y1="128.5" y2="128.5" class="net_4,37,38,39"/>
  <line x1="883" x2="903" y1="128.5" y2="128.5" class="net_4,37,38,39"/>
  <line x1="903" x2="903" y1="128.5" y2="185" class="net_4,37,38,39"/>
  <circle cx="903" cy="128.5" r="2" style="fill:#000" class="net_4,37,38,39"/>
  <line x1="903" x2="921" y1="185" y2="185" class="net_4,37,38,39"/>
  <line x1="883" x2="903" y1="128.5" y2="128.5" class="net_4,37,38,39"/>
  <line x1="903" x2="903" y1="128.5" y2="112.5" class="net_4,37,38,39"/>
  <line x1="903" x2="978" y1="112.5" y2="112.5" class="net_4,37,38,39"/>
  <line x1="883" x2="921" y1="560.5" y2="560.5" class="net_44,45,46,73"/>
  <line x1="883" x2="903" y1="560.5" y2="560.5" class="net_44,45,46,73"/>
  <line x1="903" x2="903" y1="560.5" y2="637" class="net_44,45,46,73"/>
  <circle cx="903" cy="560.5" r="2" style="fill:#000" class="net_44,45,46,73"/>
  <line x1="903" x2="921" y1="637" y2="637" class="net_44,45,46,73"/>
  <line x1="883" x2="903" y1="560.5" y2="560.5" class="net_44,45,46,73"/>
  <line x1="903" x2="903" y1="560.5" y2="544.5" class="net_44,45,46,73"/>
  <line x1="903" x2="978" y1="544.5" y2="544.5" class="net_44,45,46,73"/>
  <line x1="1105" x2="1143" y1="59.5" y2="59.5" class="net_3,51,52,53"/>
  <line x1="1105" x2="1125" y1="59.5" y2="59.5" class="net_3,51,52,53"/>
  <line x1="1125" x2="1125" y1="59.5" y2="154" class="net_3,51,52,53"/>
  <circle cx="1125" cy="59.5" r="2" style="fill:#000" class="net_3,51,52,53"/>
  <line x1="1125" x2="1143" y1="154" y2="154" class="net_3,51,52,53"/>
  <line x1="1105" x2="1125" y1="59.5" y2="59.5" class="net_3,51,52,53"/>
  <line x1="1125" x2="1125" y1="59.5" y2="43.5" class="net_3,51,52,53"/>
  <line x1="1125" x2="1200" y1="43.5" y2="43.5" class="net_3,51,52,53"/>
  <line x1="1105" x2="1143" y1="202.5" y2="202.5" class="net_58,59,60,61"/>
  <line x1="1105" x2="1125" y1="202.5" y2="202.5" class="net_58,59,60,61"/>
  <line x1="1125" x2="1125" y1="202.5" y2="652" class="net_58,59,60,61"/>
  <circle cx="1125" cy="202.5" r="2" style="fill:#000" class="net_58,59,60,61"/>
  <line x1="1125" x2="1143" y1="652" y2="652" class="net_58,59,60,61"/>
  <line x1="1105" x2="1125" y1="202.5" y2="202.5" class="net_58,59,60,61"/>
  <line x1="1125" x2="1125" y1="202.5" y2="184" class="net_58,59,60,61"/>
  <line x1="1125" x2="1200" y1="184" y2="184" class="net_58,59,60,61"/>
  <line x1="207" x2="250" y1="495" y2="495" class="net_104,105,106,107,108,109,110,111,112,113,114,115,116,117,118,119,120,121,122,123,124,125,126,127,128,129,130,131,132,133,134,135"/>
  <line x1="207" x2="227" y1="495" y2="495" class="net_104,105,106,107,108,109,110,111,112,113,114,115,116,117,118,119,120,121,122,123,124,125,126,127,128,129,130,131,132,133,134,135"/>
  <line x1="227" x2="227" y1="495" y2="510" class="net_104,105,106,107,108,109,110,111,112,113,114,115,116,117,118,119,120,121,122,123,124,125,126,127,128,129,130,131,132,133,134,135"/>
  <line x1="227" x2="416" y1="510" y2="510" class="net_104,105,106,107,108,109,110,111,112,113,114,115,116,117,118,119,120,121,122,123,124,125,126,127,128,129,130,131,132,133,134,135"/>
  <line x1="416" x2="416" y1="510" y2="363.5" class="net_104,105,106,107,108,109,110,111,112,113,114,115,116,117,118,119,120,121,122,123,124,125,126,127,128,129,130,131,132,133,134,135"/>
  <line x1="416" x2="449" y1="363.5" y2="363.5" class="net_104,105,106,107,108,109,110,111,112,113,114,115,116,117,118,119,120,121,122,123,124,125,126,127,128,129,130,131,132,133,134,135"/>
  <line x1="449" x2="449" y1="363.5" y2="394.5" class="net_104,105,106,107,108,109,110,111,112,113,114,115,116,117,118,119,120,121,122,123,124,125,126,127,128,129,130,131,132,133,134,135"/>
  <circle cx="227" cy="495" r="2" style="fill:#000" class="net_104,105,106,107,108,109,110,111,112,113,114,115,116,117,118,119,120,121,122,123,124,125,126,127,128,129,130,131,132,133,134,135"/>
  <circle cx="227" cy="510" r="2" style="fill:#000" class="net_104,105,106,107,108,109,110,111,112,113,114,115,116,117,118,119,120,121,122,123,124,125,126,127,128,129,130,131,132,133,134,135"/>
  <circle cx="416" cy="363.5" r="2" style="fill:#000" class="net_104,105,106,107,108,109,110,111,112,113,114,115,116,117,118,119,120,121,122,123,124,125,126,127,128,129,130,131,132,133,134,135"/>
  <circle cx="449" cy="363.5" r="2" style="fill:#000" class="net_104,105,106,107,108,109,110,111,112,113,114,115,116,117,118,119,120,121,122,123,124,125,126,127,128,129,130,131,132,133,134,135"/>
  <line x1="449" x2="477" y1="394.5" y2="394.5" class="net_104,105,106,107,108,109,110,111,112,113,114,115,116,117,118,119,120,121,122,123,124,125,126,127,128,129,130,131,132,133,134,135"/>
  <line x1="207" x2="227" y1="495" y2="495" class="net_104,105,106,107,108,109,110,111,112,113,114,115,116,117,118,119,120,121,122,123,124,125,126,127,128,129,130,131,132,133,134,135"/>
  <line x1="227" x2="227" y1="495" y2="283.5" class="net_104,105,106,107,108,109,110,111,112,113,114,115,116,117,118,119,120,121,122,123,124,125,126,127,128,129,130,131,132,133,134,135"/>
  <circle cx="227" cy="283.5" r="2" style="fill:#000" class="net_104,105,106,107,108,109,110,111,112,113,114,115,116,117,118,119,120,121,122,123,124,125,126,127,128,129,130,131,132,133,134,135"/>
  <line x1="227" x2="699" y1="283.5" y2="283.5" class="net_104,105,106,107,108,109,110,111,112,113,114,115,116,117,118,119,120,121,122,123,124,125,126,127,128,129,130,131,132,133,134,135"/>
  <line x1="207" x2="227" y1="495" y2="495" class="net_104,105,106,107,108,109,110,111,112,113,114,115,116,117,118,119,120,121,122,123,124,125,126,127,128,129,130,131,132,133,134,135"/>
  <line x1="227" x2="227" y1="495" y2="363.5" class="net_104,105,106,107,108,109,110,111,112,113,114,115,116,117,118,119,120,121,122,123,124,125,126,127,128,129,130,131,132,133,134,135"/>
  <line x1="227" x2="633" y1="363.5" y2="363.5" class="net_104,105,106,107,108,109,110,111,112,113,114,115,116,117,118,119,120,121,122,123,124,125,126,127,128,129,130,131,132,133,134,135"/>
  <line x1="633" x2="633" y1="363.5" y2="283.5" class="net_104,105,106,107,108,109,110,111,112,113,114,115,116,117,118,119,120,121,122,123,124,125,126,127,128,129,130,131,132,133,134,135"/>
  <line x1="633" x2="671" y1="283.5" y2="283.5" class="net_104,105,106,107,108,109,110,111,112,113,114,115,116,117,118,119,120,121,122,123,124,125,126,127,128,129,130,131,132,133,134,135"/>
  <line x1="671" x2="671" y1="283.5" y2="298.5" class="net_104,105,106,107,108,109,110,111,112,113,114,115,116,117,118,119,120,121,122,123,124,125,126,127,128,129,130,131,132,133,134,135"/>
  <line x1="671" x2="855" y1="298.5" y2="298.5" class="net_104,105,106,107,108,109,110,111,112,113,114,115,116,117,118,119,120,121,122,123,124,125,126,127,128,129,130,131,132,133,134,135"/>
  <line x1="855" x2="855" y1="298.5" y2="169" class="net_104,105,106,107,108,109,110,111,112,113,114,115,116,117,118,119,120,121,122,123,124,125,126,127,128,129,130,131,132,133,134,135"/>
  <line x1="855" x2="893" y1="169" y2="169" class="net_104,105,106,107,108,109,110,111,112,113,114,115,116,117,118,119,120,121,122,123,124,125,126,127,128,129,130,131,132,133,134,135"/>
  <line x1="893" x2="893" y1="169" y2="200" class="net_104,105,106,107,108,109,110,111,112,113,114,115,116,117,118,119,120,121,122,123,124,125,126,127,128,129,130,131,132,133,134,135"/>
  <circle cx="227" cy="363.5" r="2" style="fill:#000" class="net_104,105,106,107,108,109,110,111,112,113,114,115,116,117,118,119,120,121,122,123,124,125,126,127,128,129,130,131,132,133,134,135"/>
  <circle cx="633" cy="283.5" r="2" style="fill:#000" class="net_104,105,106,107,108,109,110,111,112,113,114,115,116,117,118,119,120,121,122,123,124,125,126,127,128,129,130,131,132,133,134,135"/>
  <circle cx="671" cy="283.5" r="2" style="fill:#000" class="net_104,105,106,107,108,109,110,111,112,113,114,115,116,117,118,119,120,121,122,123,124,125,126,127,128,129,130,131,132,133,134,135"/>
  <circle cx="855" cy="169" r="2" style="fill:#000" class="net_104,105,106,107,108,109,110,111,112,113,114,115,116,117,118,119,120,121,122,123,124,125,126,127,128,129,130,131,132,133,134,135"/>
  <circle cx="893" cy="169" r="2" style="fill:#000" class="net_104,105,106,107,108,109,110,111,112,113,114,115,116,117,118,119,120,121,122,123,124,125,126,127,128,129,130,131,132,133,134,135"/>
  <line x1="893" x2="921" y1="200" y2="200" class="net_104,105,106,107,108,109,110,111,112,113,114,115,116,117,118,119,120,121,122,123,124,125,126,127,128,129,130,131,132,133,134,135"/>
  <line x1="207" x2="227" y1="495" y2="495" class="net_104,105,106,107,108,109,110,111,112,113,114,115,116,117,118,119,120,121,122,123,124,125,126,127,128,129,130,131,132,133,134,135"/>
  <line x1="227" x2="227" y1="495" y2="652" class="net_104,105,106,107,108,109,110,111,112,113,114,115,116,117,118,119,120,121,122,123,124,125,126,127,128,129,130,131,132,133,134,135"/>
  <line x1="227" x2="921" y1="652" y2="652" class="net_104,105,106,107,108,109,110,111,112,113,114,115,116,117,118,119,120,121,122,123,124,125,126,127,128,129,130,131,132,133,134,135"/>
  <line x1="207" x2="227" y1="495" y2="495" class="net_104,105,106,107,108,109,110,111,112,113,114,115,116,117,118,119,120,121,122,123,124,125,126,127,128,129,130,131,132,133,134,135"/>
  <line x1="227" x2="227" y1="495" y2="169" class="net_104,105,106,107,108,109,110,111,112,113,114,115,116,117,118,119,120,121,122,123,124,125,126,127,128,129,130,131,132,133,134,135"/>
  <line x1="227" x2="1143" y1="169" y2="169" class="net_104,105,106,107,108,109,110,111,112,113,114,115,116,117,118,119,120,121,122,123,124,125,126,127,128,129,130,131,132,133,134,135"/>
  <line x1="207" x2="227" y1="495" y2="495" class="net_104,105,106,107,108,109,110,111,112,113,114,115,116,117,118,119,120,121,122,123,124,125,126,127,128,129,130,131,132,133,134,135"/>
  <line x1="227" x2="227" y1="495" y2="652" class="net_104,105,106,107,108,109,110,111,112,113,114,115,116,117,118,119,120,121,122,123,124,125,126,127,128,129,130,131,132,133,134,135"/>
  <line x1="227" x2="893" y1="652" y2="652" class="net_104,105,106,107,108,109,110,111,112,113,114,115,116,117,118,119,120,121,122,123,124,125,126,127,128,129,130,131,132,133,134,135"/>
  <line x1="893" x2="893" y1="652" y2="667" class="net_104,105,106,107,108,109,110,111,112,113,114,115,116,117,118,119,120,121,122,123,124,125,126,127,128,129,130,131,132,133,134,135"/>
  <circle cx="893" cy="652" r="2" style="fill:#000" class="net_104,105,106,107,108,109,110,111,112,113,114,115,116,117,118,119,120,121,122,123,124,125,126,127,128,129,130,131,132,133,134,135"/>
  <line x1="893" x2="1143" y1="667" y2="667" class="net_104,105,106,107,108,109,110,111,112,113,114,115,116,117,118,119,120,121,122,123,124,125,126,127,128,129,130,131,132,133,134,135"/>
  <line x1="1165" x2="1175" y1="210" y2="210" class="net_62,63,64,65"/>
  <line x1="1175" x2="1175" y1="210" y2="204" class="net_62,63,64,65"/>
  <line x1="1175" x2="1200" y1="204" y2="204" class="net_62,63,64,65"/>
  <line x1="1165" x2="1210" y1="659.5" y2="659.5" class="net_72"/>
  <line x1="1210" x2="1210" y1="659.5" y2="209" class="net_72"/>
  <line x1="1165" x2="1175" y1="67" y2="67" class="net_54,55,56,57"/>
  <line x1="1175" x2="1175" y1="67" y2="63.5" class="net_54,55,56,57"/>
  <line x1="1175" x2="1200" y1="63.5" y2="63.5" class="net_54,55,56,57"/>
  <line x1="1165" x2="1210" y1="161.5" y2="161.5" class="net_71"/>
  <line x1="1210" x2="1210" y1="161.5" y2="68.5" class="net_71"/>
  <line x1="943" x2="953" y1="568" y2="568" class="net_47,48,49,50"/>
  <line x1="953" x2="953" y1="568" y2="564.5" class="net_47,48,49,50"/>
  <line x1="953" x2="978" y1="564.5" y2="564.5" class="net_47,48,49,50"/>
  <line x1="943" x2="988" y1="644.5" y2="644.5" class="net_70"/>
  <line x1="988" x2="988" y1="644.5" y2="569.5" class="net_70"/>
  <line x1="943" x2="953" y1="136" y2="136" class="net_40,41,42,43"/>
  <line x1="953" x2="953" y1="136" y2="132.5" class="net_40,41,42,43"/>
  <line x1="953" x2="978" y1="132.5" y2="132.5" class="net_40,41,42,43"/>
  <line x1="943" x2="988" y1="192.5" y2="192.5" class="net_69"/>
  <line x1="988" x2="988" y1="192.5" y2="137.5" class="net_69"/>
  <line x1="721" x2="731" y1="216" y2="216" class="net_33,34,35,36"/>
  <line x1="731" x2="731" y1="216" y2="212.5" class="net_33,34,35,36"/>
  <line x1="731" x2="756" y1="212.5" y2="212.5" class="net_33,34,35,36"/>
  <line x1="721" x2="766" y1="276" y2="276" class="net_68"/>
  <line x1="766" x2="766" y1="276" y2="217.5" class="net_68"/>
  <line x1="499" x2="509" y1="330.5" y2="330.5" class="net_26,27,28,29"/>
  <line x1="509" x2="509" y1="330.5" y2="327" class="net_26,27,28,29"/>
  <line x1="509" x2="534" y1="327" y2="327" class="net_26,27,28,29"/>
  <line x1="499" x2="544" y1="387" y2="387" class="net_67"/>
  <line x1="544" x2="544" y1="387" y2="332" class="net_67"/>
  <line x1="272" x2="282" y1="427.5" y2="427.5" class="net_19,20,21,22"/>
  <line x1="282" x2="282" y1="427.5" y2="407" class="net_19,20,21,22"/>
  <line x1="282" x2="307" y1="407" y2="407" class="net_19,20,21,22"/>
  <line x1="272" x2="317" y1="487.5" y2="487.5" class="net_66"/>
  <line x1="317" x2="317" y1="487.5" y2="412" class="net_66"/>
  <line x1="1268" x2="1303" y1="32.5" y2="32.5" class="net_2,10,11,12,13,14,15,16,17,18"/>
  <line x1="87.5" x2="87.5" y1="432" y2="410" class="net_7,8,9"/>
  <line x1="87.5" x2="196" y1="410" y2="410" class="net_7,8,9"/>
  <line x1="107" x2="167" y1="641" y2="641" class="net_73"/>
  <line x1="167" x2="167" y1="641" y2="430" class="net_73"/>
  <circle cx="167" cy="641" r="2" style="fill:#000" class="net_73"/>
  <line x1="167" x2="196" y1="430" y2="430" class="net_73"/>
  <line x1="107" x2="877.5" y1="641" y2="641" class="net_73"/>
  <line x1="877.5" x2="877.5" y1="641" y2="611" class="net_73"/>
  <line x1="88" x2="117" y1="452.5" y2="452.5" class="net_6"/>
  <line x1="117" x2="117" y1="452.5" y2="313" class="net_6"/>
  <line x1="117" x2="433" y1="313" y2="313" class="net_6"/>
  <line x1="367" x2="396" y1="387" y2="387" class="net_23,24,25"/>
  <line x1="396" x2="396" y1="387" y2="333" class="net_23,24,25"/>
  <line x1="396" x2="433" y1="333" y2="333" class="net_23,24,25"/>
  <line x1="88" x2="127" y1="472.5" y2="472.5" class="net_5"/>
  <line x1="127" x2="127" y1="472.5" y2="198.5" class="net_5"/>
  <line x1="127" x2="655" y1="198.5" y2="198.5" class="net_5"/>
  <line x1="594" x2="623" y1="307" y2="307" class="net_30,31,32"/>
  <line x1="623" x2="623" y1="307" y2="218.5" class="net_30,31,32"/>
  <line x1="623" x2="655" y1="218.5" y2="218.5" class="net_30,31,32"/>
  <line x1="88" x2="137" y1="492.5" y2="492.5" class="net_4"/>
  <line x1="137" x2="137" y1="492.5" y2="118.5" class="net_4"/>
  <line x1="137" x2="877" y1="118.5" y2="118.5" class="net_4"/>
  <line x1="816" x2="845" y1="192.5" y2="192.5" class="net_37,38,39"/>
  <line x1="845" x2="845" y1="192.5" y2="138.5" class="net_37,38,39"/>
  <line x1="845" x2="877" y1="138.5" y2="138.5" class="net_37,38,39"/>
  <line x1="816" x2="845" y1="212.5" y2="212.5" class="net_44"/>
  <line x1="845" x2="845" y1="212.5" y2="550.5" class="net_44"/>
  <line x1="845" x2="877" y1="550.5" y2="550.5" class="net_44"/>
  <line x1="594" x2="623" y1="327" y2="327" class="net_45"/>
  <line x1="623" x2="623" y1="327" y2="570.5" class="net_45"/>
  <line x1="623" x2="877" y1="570.5" y2="570.5" class="net_45"/>
  <line x1="367" x2="406" y1="407" y2="407" class="net_46"/>
  <line x1="406" x2="406" y1="407" y2="590.5" class="net_46"/>
  <line x1="406" x2="877" y1="590.5" y2="590.5" class="net_46"/>
  <line x1="88" x2="147" y1="512.5" y2="512.5" class="net_3"/>
  <line x1="147" x2="147" y1="512.5" y2="49.5" class="net_3"/>
  <line x1="147" x2="1099" y1="49.5" y2="49.5" class="net_3"/>
  <line x1="1038" x2="1067" y1="112.5" y2="112.5" class="net_51,52,53"/>
  <line x1="1067" x2="1067" y1="112.5" y2="69.5" class="net_51,52,53"/>
  <line x1="1067" x2="1099" y1="69.5" y2="69.5" class="net_51,52,53"/>
  <line x1="1038" x2="1067" y1="132.5" y2="132.5" class="net_58"/>
  <line x1="1067" x2="1067" y1="132.5" y2="192.5" class="net_58"/>
  <line x1="1067" x2="1099" y1="192.5" y2="192.5" class="net_58"/>
  <line x1="1038" x2="1067" y1="544.5" y2="544.5" class="net_59,60,61"/>
  <line x1="1067" x2="1067" y1="544.5" y2="212.5" class="net_59,60,61"/>
  <line x1="1067" x2="1099" y1="212.5" y2="212.5" class="net_59,60,61"/>
  <line x1="87.5" x2="87.5" y1="533" y2="552" class="net_2"/>
  <line x1="87.5" x2="157" y1="552" y2="552" class="net_2"/>
  <line x1="157" x2="157" y1="552" y2="22.5" class="net_2"/>
  <line x1="157" x2="1262" y1="22.5" y2="22.5" class="net_2"/>
  <line x1="1220" x2="1230" y1="53.5" y2="53.5" class="net_10,11,12,13"/>
  <line x1="1230" x2="1230" y1="53.5" y2="42.5" class="net_10,11,12,13"/>
  <line x1="1230" x2="1262" y1="42.5" y2="42.5" class="net_10,11,12,13"/>
  <line x1="1220" x2="1230" y1="194" y2="194" class="net_14,15,16,17"/>
  <line x1="1230" x2="1230" y1="194" y2="62.5" class="net_14,15,16,17"/>
  <line x1="1230" x2="1262" y1="62.5" y2="62.5" class="net_14,15,16,17"/>
  <line x1="1038" x2="1067" y1="564.5" y2="564.5" class="net_18"/>
  <line x1="1067" x2="1067" y1="564.5" y2="682" class="net_18"/>
  <line x1="1067" x2="1262.5" y1="682" y2="682" class="net_18"/>
  <line x1="1262.5" x2="1262.5" y1="682" y2="83" class="net_18"/>
  <line x1="40" x2="83" y1="442.5" y2="442.5" class="net_2,3,4,5,6,7,8,9"/>
  <line x1="327" x2="362" y1="397" y2="397" class="net_23,24,25,46"/>
  <line x1="554" x2="589" y1="317" y2="317" class="net_30,31,32,45"/>
  <line x1="776" x2="811" y1="202.5" y2="202.5" class="net_37,38,39,44"/>
  <line x1="998" x2="1033" y1="122.5" y2="122.5" class="net_51,52,53,58"/>
  <line x1="998" x2="1033" y1="554.5" y2="554.5" class="net_59,60,61,18"/>
</svg>
